<svg width="967" height="967" viewBox="0 0 967 967" fill="none" xmlns="http://www.w3.org/2000/svg">
<g filter="url(#filter0_ii_8_2)">
<path d="M902.141 725.342C961.494 622.541 980.913 501.484 956.694 385.277C932.475 269.069 866.313 165.849 770.836 95.3166C675.359 24.7841 557.252 -8.12128 439.059 2.88075C320.865 13.8828 210.862 68.0218 130.043 154.965C49.2245 241.908 3.2506 355.566 0.895995 474.247C-1.45864 592.928 39.9709 708.321 117.277 798.401C194.584 888.481 302.354 946.941 420.018 962.622C537.682 978.303 657 950.109 755.2 883.418L698.328 698.329L902.141 725.342Z" fill="#4F9142"/>
</g>
<path d="M439.847 11.3441C555.053 0.620295 670.175 32.3599 763.582 100.536L765.785 102.153C858.849 170.903 923.562 271.266 947.807 384.338L948.373 387.011C971.78 499.322 953.694 616.242 897.586 716.163L699.445 689.902L686.312 688.162L690.202 700.825L745.218 879.87C649.751 942.88 534.662 969.326 421.14 954.197C305.547 938.791 199.674 881.36 123.728 792.865C48.375 705.062 7.71969 592.778 9.3484 477.148L9.39423 474.416C11.6893 358.735 56.1692 247.909 134.414 162.758L136.269 160.751C215.045 76.0057 322.046 22.9851 437.127 11.6048L439.847 11.3441Z" stroke="url(#paint0_linear_8_2)" stroke-width="17"/>
<defs>
<filter id="filter0_ii_8_2" x="-3.49916" y="-3.4994" width="974.655" height="974.656" filterUnits="userSpaceOnUse" color-interpolation-filters="sRGB">
<feFlood flood-opacity="0" result="BackgroundImageFix"/>
<feBlend mode="normal" in="SourceGraphic" in2="BackgroundImageFix" result="shape"/>
<feColorMatrix in="SourceAlpha" type="matrix" values="0 0 0 0 0 0 0 0 0 0 0 0 0 0 0 0 0 0 127 0" result="hardAlpha"/>
<feOffset dx="-28" dy="-35"/>
<feGaussianBlur stdDeviation="2.15"/>
<feComposite in2="hardAlpha" operator="arithmetic" k2="-1" k3="1"/>
<feColorMatrix type="matrix" values="0 0 0 0 0.0780441 0 0 0 0 0.432692 0 0 0 0 0.0312038 0 0 0 0.25 0"/>
<feBlend mode="normal" in2="shape" result="effect1_innerShadow_8_2"/>
<feColorMatrix in="SourceAlpha" type="matrix" values="0 0 0 0 0 0 0 0 0 0 0 0 0 0 0 0 0 0 127 0" result="hardAlpha"/>
<feOffset dx="28" dy="16"/>
<feGaussianBlur stdDeviation="2.15"/>
<feComposite in2="hardAlpha" operator="arithmetic" k2="-1" k3="1"/>
<feColorMatrix type="matrix" values="0 0 0 0 0.865385 0 0 0 0 0.865385 0 0 0 0 0.865385 0 0 0 0.25 0"/>
<feBlend mode="normal" in2="effect1_innerShadow_8_2" result="effect2_innerShadow_8_2"/>
</filter>
<linearGradient id="paint0_linear_8_2" x1="36.4596" y1="577.235" x2="862.682" y2="509.089" gradientUnits="userSpaceOnUse">
<stop stop-color="#2B8138"/>
<stop offset="1" stop-color="#236C2E"/>
</linearGradient>
</defs>
</svg>
