<svg width="39" height="42" viewBox="0 0 39 42" fill="none" xmlns="http://www.w3.org/2000/svg">
<path d="M31.5505 28.6806C29.9113 28.6806 28.467 29.1734 27.4558 29.9208C26.4445 30.6683 25.9188 31.6202 25.9187 32.582C25.9187 33.5439 26.4443 34.4965 27.4558 35.2441C28.467 35.9915 29.9113 36.4843 31.5505 36.4843C33.1897 36.4843 34.634 35.9915 35.6453 35.2441C36.6567 34.4965 37.1824 33.5439 37.1824 32.582C37.1822 31.6202 36.6566 30.6683 35.6453 29.9208C34.634 29.1734 33.1898 28.6806 31.5505 28.6806Z" fill="#188D3B" stroke="#246905" stroke-width="2"/>
<path d="M31.1641 35.4871C30.6188 35.6247 30.2879 36.1785 30.4254 36.7238C30.4366 36.7679 30.5064 36.9244 30.7221 37.1656C30.9233 37.3907 31.1964 37.6267 31.5007 37.8335C31.8062 38.041 32.1135 38.1994 32.3761 38.2896C32.5832 38.3607 32.705 38.3681 32.7554 38.3682C32.7632 38.3337 32.7722 38.2791 32.775 38.1981C32.7879 37.8279 32.6786 37.3283 32.5365 36.7646C32.4587 36.4566 32.2135 36.0627 31.874 35.7785C31.5213 35.4832 31.2669 35.4612 31.1641 35.4871Z" fill="#188D3B" stroke="#246905" stroke-width="2"/>
<path d="M29.2683 36.3411C28.7231 36.4786 28.3922 37.0324 28.5297 37.5777C28.5409 37.6218 28.6107 37.7783 28.8263 38.0195C29.0276 38.2446 29.3006 38.4806 29.605 38.6874C29.9104 38.8949 30.2178 39.0533 30.4804 39.1435C30.6875 39.2146 30.8093 39.222 30.8597 39.2221C30.8675 39.1876 30.8764 39.133 30.8793 39.052C30.8922 38.6818 30.7829 38.1823 30.6408 37.6186C30.563 37.3105 30.3178 36.9166 29.9783 36.6324C29.6256 36.3371 29.3712 36.3151 29.2683 36.3411Z" fill="#188D3B" stroke="#246905" stroke-width="2"/>
<path d="M27.3725 37.195C26.8273 37.3326 26.4964 37.8863 26.6338 38.4317C26.645 38.4758 26.7148 38.6323 26.9305 38.8735C27.1318 39.0985 27.4048 39.3346 27.7092 39.5413C28.0146 39.7488 28.322 39.9073 28.5845 39.9975C28.7917 40.0686 28.9135 40.076 28.9639 40.0761C28.9717 40.0415 28.9806 39.9869 28.9835 39.906C28.9964 39.5358 28.8871 39.0362 28.745 38.4725C28.6672 38.1645 28.4219 37.7706 28.0825 37.4864C27.7297 37.1911 27.4754 37.1691 27.3725 37.195Z" fill="#188D3B" stroke="#246905" stroke-width="2"/>
<path d="M6.75333 28.6806C5.11408 28.6806 3.66982 29.1734 2.6586 29.9208C1.64727 30.6683 1.12164 31.6202 1.12149 32.582C1.12149 33.5439 1.64712 34.4965 2.6586 35.2441C3.66981 35.9915 5.11412 36.4843 6.75333 36.4843C8.39252 36.4843 9.83684 35.9915 10.8481 35.2441C11.8595 34.4965 12.3852 33.5439 12.3852 32.582C12.385 31.6202 11.8594 30.6683 10.8481 29.9208C9.83683 29.1734 8.39257 28.6806 6.75333 28.6806Z" fill="#188D3B" stroke="#246905" stroke-width="2"/>
<path d="M6.81549 35.4871C7.36076 35.6247 7.69164 36.1785 7.55418 36.7238C7.54297 36.7679 7.47318 36.9244 7.25748 37.1656C7.05623 37.3907 6.7832 37.6267 6.47883 37.8335C6.17339 38.041 5.86602 38.1994 5.60348 38.2896C5.39635 38.3607 5.27452 38.3681 5.22412 38.3682C5.21635 38.3337 5.2074 38.2791 5.20456 38.1981C5.19163 37.8279 5.30094 37.3283 5.44304 36.7646C5.52081 36.4566 5.76608 36.0627 6.10555 35.7785C6.45827 35.4832 6.71264 35.4612 6.81549 35.4871Z" fill="#188D3B" stroke="#246905" stroke-width="2"/>
<path d="M8.71124 36.3411C9.25651 36.4786 9.58739 37.0324 9.44993 37.5777C9.43872 37.6218 9.36893 37.7783 9.15323 38.0195C8.95199 38.2446 8.67895 38.4806 8.37458 38.6874C8.06914 38.8949 7.76177 39.0533 7.49923 39.1435C7.2921 39.2146 7.17027 39.222 7.11988 39.2221C7.11211 39.1876 7.10315 39.133 7.10031 39.052C7.08738 38.6818 7.19669 38.1823 7.33879 37.6186C7.41656 37.3105 7.66183 36.9166 8.0013 36.6324C8.35402 36.3371 8.60839 36.3151 8.71124 36.3411Z" fill="#188D3B" stroke="#246905" stroke-width="2"/>
<path d="M10.6071 37.195C11.1524 37.3326 11.4833 37.8863 11.3458 38.4317C11.3346 38.4758 11.2648 38.6323 11.0491 38.8735C10.8479 39.0985 10.5749 39.3346 10.2705 39.5413C9.96504 39.7488 9.65767 39.9073 9.39513 39.9975C9.18801 40.0686 9.06618 40.076 9.01578 40.0761C9.00801 40.0415 8.99906 39.9869 8.99622 39.906C8.98328 39.5358 9.0926 39.0362 9.23469 38.4725C9.31247 38.1645 9.55773 37.7706 9.8972 37.4864C10.2499 37.1911 10.5043 37.1691 10.6071 37.195Z" fill="#188D3B" stroke="#246905" stroke-width="2"/>
<g filter="url(#filter0_i_16_2362)">
<path d="M0.474968 26.4177C0.474968 32.1505 9.12515 38.5279 19.3169 38.5279C29.5086 38.5279 37.3824 32.1505 37.3824 26.4177C37.3824 20.6848 29.1204 16.0374 18.9287 16.0374C8.73698 16.0374 0.474968 20.6848 0.474968 26.4177Z" fill="#188D3B"/>
</g>
<path d="M18.9283 17.5374C14.0416 17.5375 9.69166 18.655 6.61581 20.3851C3.49302 22.1417 1.97535 24.3336 1.97519 26.4173C1.97519 28.5519 3.64899 31.1848 6.91074 33.3783C10.102 35.5243 14.5219 37.0277 19.317 37.0277C24.107 37.0276 28.3182 35.5269 31.3014 33.4007C34.3339 31.2392 35.8824 28.6087 35.8824 26.4173C35.8823 24.3336 34.3646 22.1417 31.2418 20.3851C28.1659 18.6549 23.8152 17.5374 18.9283 17.5374Z" stroke="#246905" stroke-width="3"/>
<g filter="url(#filter1_i_16_2362)">
<path d="M0.698235 18.4538C0.698235 24.1866 9.34842 30.564 19.5401 30.564C29.7318 30.564 37.6057 24.1866 37.6057 18.4538C37.6057 12.7209 29.3437 8.07353 19.152 8.07353C8.96025 8.07353 0.698235 12.7209 0.698235 18.4538Z" fill="#188D3B"/>
</g>
<path d="M19.1516 9.57353C14.2649 9.57359 9.91493 10.6911 6.83908 12.4212C3.71629 14.1778 2.19862 16.3697 2.19846 18.4534C2.19846 20.588 3.87225 23.2209 7.134 25.4144C10.3252 27.5604 14.7452 29.0638 19.5403 29.0638C24.3303 29.0637 28.5415 27.563 31.5246 25.4368C34.5572 23.2753 36.1057 20.6448 36.1057 18.4534C36.1055 16.3697 34.5879 14.1778 31.4651 12.4212C28.3891 10.691 24.0385 9.57353 19.1516 9.57353Z" stroke="#246905" stroke-width="3"/>
<mask id="path-13-inside-1_16_2362" fill="white">
<path d="M12.2316 0C7.77282 0.00011797 4.15836 3.74426 4.15836 8.3623C4.1586 12.9801 7.77297 16.7235 12.2316 16.7236C15.0209 16.7236 17.4805 15.2589 18.9308 13.0312C20.2843 15.2267 22.9739 16.7236 26.0724 16.7236C30.5311 16.7235 34.1456 13.6254 34.1457 9.80371C34.1457 5.9819 30.5312 2.88392 26.0724 2.88379C23.5405 2.88379 21.2812 3.88305 19.8009 5.44629C18.6584 2.26575 15.7004 0 12.2316 0Z"/>
</mask>
<g filter="url(#filter2_i_16_2362)">
<path d="M12.2316 0C7.77282 0.00011797 4.15836 3.74426 4.15836 8.3623C4.1586 12.9801 7.77297 16.7235 12.2316 16.7236C15.0209 16.7236 17.4805 15.2589 18.9308 13.0312C20.2843 15.2267 22.9739 16.7236 26.0724 16.7236C30.5311 16.7235 34.1456 13.6254 34.1457 9.80371C34.1457 5.9819 30.5312 2.88392 26.0724 2.88379C23.5405 2.88379 21.2812 3.88305 19.8009 5.44629C18.6584 2.26575 15.7004 0 12.2316 0Z" fill="#F3EDED"/>
</g>
<path d="M12.2316 0L12.2315 -2H12.2316V0ZM4.15836 8.3623L2.15836 8.36241V8.3623H4.15836ZM12.2316 16.7236V18.7236H12.2315L12.2316 16.7236ZM18.9308 13.0312L17.2547 11.94L18.9769 9.29494L20.6333 11.9817L18.9308 13.0312ZM26.0724 16.7236L26.0725 18.7236H26.0724V16.7236ZM34.1457 9.80371H36.1457V9.80377L34.1457 9.80371ZM26.0724 2.88379V0.883789H26.0725L26.0724 2.88379ZM19.8009 5.44629L21.2532 6.82142L19.0178 9.18213L17.9187 6.12244L19.8009 5.44629ZM12.2316 0L12.2317 2C8.94315 2.00009 6.15836 4.78192 6.15836 8.3623H4.15836H2.15836C2.15836 2.7066 6.6025 -1.99985 12.2315 -2L12.2316 0ZM4.15836 8.3623L6.15836 8.3622C6.15855 11.9423 8.9431 14.7235 12.2317 14.7236L12.2316 16.7236L12.2315 18.7236C6.60284 18.7235 2.15866 14.018 2.15836 8.36241L4.15836 8.3623ZM12.2316 16.7236V14.7236C14.2967 14.7236 16.1466 13.6421 17.2547 11.94L18.9308 13.0312L20.6069 14.1225C18.8143 16.8757 15.7451 18.7236 12.2316 18.7236V16.7236ZM18.9308 13.0312L20.6333 11.9817C21.5857 13.5266 23.5946 14.7236 26.0724 14.7236V16.7236V18.7236C22.3532 18.7236 18.9829 16.9267 17.2284 14.0808L18.9308 13.0312ZM26.0724 16.7236L26.0724 14.7236C29.7269 14.7235 32.1456 12.2427 32.1457 9.80365L34.1457 9.80371L36.1457 9.80377C36.1455 15.0082 31.3353 18.7235 26.0725 18.7236L26.0724 16.7236ZM34.1457 9.80371H32.1457C32.1457 7.36465 29.727 4.88389 26.0724 4.88379L26.0724 2.88379L26.0725 0.883789C31.3353 0.883939 36.1457 4.59915 36.1457 9.80371H34.1457ZM26.0724 2.88379V4.88379C24.058 4.88379 22.3344 5.67959 21.2532 6.82142L19.8009 5.44629L18.3487 4.07115C20.228 2.0865 23.0229 0.883789 26.0724 0.883789V2.88379ZM19.8009 5.44629L17.9187 6.12244C17.0399 3.67609 14.7945 2 12.2316 2V0V-2C16.6063 -2 20.2769 0.855416 21.6832 4.77014L19.8009 5.44629Z" fill="url(#paint0_linear_16_2362)" mask="url(#path-13-inside-1_16_2362)"/>
<path d="M10.6007 8.81468C10.2276 8.81468 9.91558 8.50591 10.0233 8.14866C10.1105 7.85951 10.2543 7.58817 10.4487 7.35132C10.7872 6.93878 11.2584 6.6564 11.7818 6.55229C12.3052 6.44817 12.8485 6.52877 13.3192 6.78034C13.7898 7.03191 14.1587 7.43889 14.3629 7.93194C14.5672 8.42499 14.5941 8.97359 14.4392 9.48428C14.2843 9.99498 13.9571 10.4362 13.5133 10.7326C13.0696 11.0291 12.5368 11.1626 12.0057 11.1103C11.7008 11.0803 11.4072 10.9901 11.1411 10.8473C10.8123 10.6708 10.8146 10.2319 11.0784 9.96804C11.5041 9.54242 11.2026 8.81468 10.6007 8.81468Z" fill="black"/>
<path d="M24.5563 9.50668C24.1832 9.50668 23.8712 9.19791 23.979 8.84067C24.0662 8.55151 24.2099 8.28017 24.4043 8.04332C24.7429 7.63078 25.214 7.3484 25.7374 7.24429C26.2608 7.14018 26.8041 7.22077 27.2748 7.47234C27.7455 7.72391 28.1143 8.13089 28.3186 8.62394C28.5228 9.11699 28.5497 9.66559 28.3948 10.1763C28.2399 10.687 27.9127 11.1282 27.469 11.4246C27.0252 11.7211 26.4924 11.8546 25.9613 11.8023C25.6564 11.7723 25.3629 11.6821 25.0967 11.5393C24.768 11.3628 24.7702 10.9239 25.0341 10.66C25.4597 10.2344 25.1582 9.50668 24.5563 9.50668Z" fill="black"/>
<ellipse cx="2.30672" cy="0.865018" rx="2.30672" ry="0.865018" transform="matrix(-0.920487 -0.390773 -0.390773 0.920487 19.1519 19.6799)" fill="#1D482E"/>
<ellipse cx="21.8808" cy="19.5747" rx="2.30672" ry="0.865018" transform="rotate(-23.0026 21.8808 19.5747)" fill="#1D482E"/>
<defs>
<filter id="filter0_i_16_2362" x="0.474976" y="16.0374" width="36.9074" height="26.4905" filterUnits="userSpaceOnUse" color-interpolation-filters="sRGB">
<feFlood flood-opacity="0" result="BackgroundImageFix"/>
<feBlend mode="normal" in="SourceGraphic" in2="BackgroundImageFix" result="shape"/>
<feColorMatrix in="SourceAlpha" type="matrix" values="0 0 0 0 0 0 0 0 0 0 0 0 0 0 0 0 0 0 127 0" result="hardAlpha"/>
<feOffset dy="10"/>
<feGaussianBlur stdDeviation="2"/>
<feComposite in2="hardAlpha" operator="arithmetic" k2="-1" k3="1"/>
<feColorMatrix type="matrix" values="0 0 0 0 0.278431 0 0 0 0 0.156863 0 0 0 0 0.0509804 0 0 0 0.18 0"/>
<feBlend mode="normal" in2="shape" result="effect1_innerShadow_16_2362"/>
</filter>
<filter id="filter1_i_16_2362" x="0.698242" y="4.07353" width="36.9074" height="26.4905" filterUnits="userSpaceOnUse" color-interpolation-filters="sRGB">
<feFlood flood-opacity="0" result="BackgroundImageFix"/>
<feBlend mode="normal" in="SourceGraphic" in2="BackgroundImageFix" result="shape"/>
<feColorMatrix in="SourceAlpha" type="matrix" values="0 0 0 0 0 0 0 0 0 0 0 0 0 0 0 0 0 0 127 0" result="hardAlpha"/>
<feOffset dy="-9"/>
<feGaussianBlur stdDeviation="2"/>
<feComposite in2="hardAlpha" operator="arithmetic" k2="-1" k3="1"/>
<feColorMatrix type="matrix" values="0 0 0 0 0.278846 0 0 0 0 0.157298 0 0 0 0 0.050943 0 0 0 0.25 0"/>
<feBlend mode="normal" in2="shape" result="effect1_innerShadow_16_2362"/>
</filter>
<filter id="filter2_i_16_2362" x="4.15836" y="-3" width="29.9873" height="19.7236" filterUnits="userSpaceOnUse" color-interpolation-filters="sRGB">
<feFlood flood-opacity="0" result="BackgroundImageFix"/>
<feBlend mode="normal" in="SourceGraphic" in2="BackgroundImageFix" result="shape"/>
<feColorMatrix in="SourceAlpha" type="matrix" values="0 0 0 0 0 0 0 0 0 0 0 0 0 0 0 0 0 0 127 0" result="hardAlpha"/>
<feOffset dy="-3"/>
<feGaussianBlur stdDeviation="2"/>
<feComposite in2="hardAlpha" operator="arithmetic" k2="-1" k3="1"/>
<feColorMatrix type="matrix" values="0 0 0 0 0.423077 0 0 0 0 0.414941 0 0 0 0 0.414941 0 0 0 0.47 0"/>
<feBlend mode="normal" in2="shape" result="effect1_innerShadow_16_2362"/>
</filter>
<linearGradient id="paint0_linear_16_2362" x1="19.152" y1="3.02508e-07" x2="24.8128" y2="24.9811" gradientUnits="userSpaceOnUse">
<stop stop-color="#EFE1E1"/>
<stop offset="1" stop-color="#A3A3A3"/>
</linearGradient>
</defs>
</svg>
