<svg width="39" height="42" viewBox="0 0 39 42" fill="none" xmlns="http://www.w3.org/2000/svg">
<path d="M31.429 28.6806C29.7897 28.6806 28.3454 29.1734 27.3342 29.9208C26.3229 30.6683 25.7973 31.6202 25.7971 32.582C25.7971 33.5439 26.3228 34.4965 27.3342 35.2441C28.3454 35.9915 29.7898 36.4843 31.429 36.4843C33.0682 36.4843 34.5125 35.9915 35.5237 35.2441C36.5352 34.4965 37.0608 33.5439 37.0608 32.582C37.0606 31.6202 36.535 30.6683 35.5237 29.9208C34.5125 29.1734 33.0682 28.6806 31.429 28.6806Z" fill="#DE7A22" stroke="#A15919" stroke-width="2"/>
<path d="M31.0425 35.4871C30.4972 35.6247 30.1663 36.1785 30.3038 36.7238C30.315 36.7679 30.3848 36.9244 30.6005 37.1656C30.8017 37.3907 31.0748 37.6267 31.3791 37.8335C31.6846 38.041 31.992 38.1994 32.2545 38.2896C32.4616 38.3607 32.5834 38.3681 32.6338 38.3682C32.6416 38.3337 32.6506 38.2791 32.6534 38.1981C32.6663 37.8279 32.557 37.3283 32.4149 36.7646C32.3372 36.4566 32.0919 36.0627 31.7524 35.7785C31.3997 35.4832 31.1453 35.4612 31.0425 35.4871Z" fill="#DE7A22" stroke="#A15919" stroke-width="2"/>
<path d="M29.1467 36.3411C28.6015 36.4786 28.2706 37.0324 28.408 37.5777C28.4192 37.6218 28.489 37.7783 28.7047 38.0195C28.906 38.2446 29.179 38.4806 29.4834 38.6874C29.7888 38.8949 30.0962 39.0533 30.3587 39.1435C30.5659 39.2146 30.6877 39.222 30.7381 39.2221C30.7459 39.1876 30.7548 39.133 30.7577 39.052C30.7706 38.6818 30.6613 38.1823 30.5192 37.6186C30.4414 37.3105 30.1961 36.9166 29.8567 36.6324C29.5039 36.3371 29.2496 36.3151 29.1467 36.3411Z" fill="#DE7A22" stroke="#A15919" stroke-width="2"/>
<path d="M27.251 37.195C26.7057 37.3326 26.3748 37.8863 26.5123 38.4317C26.5235 38.4758 26.5933 38.6323 26.809 38.8735C27.0102 39.0985 27.2833 39.3346 27.5876 39.5413C27.8931 39.7488 28.2005 39.9073 28.463 39.9975C28.6701 40.0686 28.7919 40.076 28.8423 40.0761C28.8501 40.0415 28.8591 39.9869 28.8619 39.906C28.8748 39.5358 28.7655 39.0362 28.6234 38.4725C28.5457 38.1645 28.3004 37.7706 27.9609 37.4864C27.6082 37.1911 27.3538 37.1691 27.251 37.195Z" fill="#DE7A22" stroke="#A15919" stroke-width="2"/>
<path d="M6.63177 28.6806C4.99253 28.6806 3.54827 29.1734 2.53705 29.9208C1.52572 30.6683 1.00009 31.6202 0.999939 32.582C0.999939 33.5439 1.52557 34.4965 2.53705 35.2441C3.54826 35.9915 4.99257 36.4843 6.63177 36.4843C8.27097 36.4843 9.71528 35.9915 10.7265 35.2441C11.738 34.4965 12.2636 33.5439 12.2636 32.582C12.2635 31.6202 11.7378 30.6683 10.7265 29.9208C9.71528 29.1734 8.27102 28.6806 6.63177 28.6806Z" fill="#DE7A22" stroke="#A15919" stroke-width="2"/>
<path d="M6.69391 35.4871C7.23918 35.6247 7.57006 36.1785 7.43259 36.7238C7.42139 36.7679 7.35159 36.9244 7.1359 37.1656C6.93465 37.3907 6.66161 37.6267 6.35725 37.8335C6.0518 38.041 5.74443 38.1994 5.4819 38.2896C5.27477 38.3607 5.15294 38.3681 5.10254 38.3682C5.09477 38.3337 5.08582 38.2791 5.08298 38.1981C5.07004 37.8279 5.17936 37.3283 5.32145 36.7646C5.39923 36.4566 5.6445 36.0627 5.98396 35.7785C6.33669 35.4832 6.59106 35.4612 6.69391 35.4871Z" fill="#DE7A22" stroke="#A15919" stroke-width="2"/>
<path d="M8.58966 36.3411C9.13493 36.4786 9.46581 37.0324 9.32835 37.5777C9.31714 37.6218 9.24735 37.7783 9.03165 38.0195C8.8304 38.2446 8.55737 38.4806 8.253 38.6874C7.94756 38.8949 7.64019 39.0533 7.37765 39.1435C7.17052 39.2146 7.04869 39.222 6.99829 39.2221C6.99052 39.1876 6.98157 39.133 6.97873 39.052C6.9658 38.6818 7.07511 38.1823 7.21721 37.6186C7.29498 37.3105 7.54025 36.9166 7.87972 36.6324C8.23244 36.3371 8.48681 36.3151 8.58966 36.3411Z" fill="#DE7A22" stroke="#A15919" stroke-width="2"/>
<path d="M10.4856 37.195C11.0309 37.3326 11.3617 37.8863 11.2243 38.4317C11.2131 38.4758 11.1433 38.6323 10.9276 38.8735C10.7263 39.0985 10.4533 39.3346 10.1489 39.5413C9.84349 39.7488 9.53612 39.9073 9.27358 39.9975C9.06646 40.0686 8.94463 40.076 8.89423 40.0761C8.88646 40.0415 8.87751 39.9869 8.87467 39.906C8.86173 39.5358 8.97104 39.0362 9.11314 38.4725C9.19092 38.1645 9.43618 37.7706 9.77565 37.4864C10.1284 37.1911 10.3827 37.1691 10.4856 37.195Z" fill="#DE7A22" stroke="#A15919" stroke-width="2"/>
<g filter="url(#filter0_i_16_2668)">
<path d="M0.353386 26.4177C0.353386 32.1505 9.00357 38.5279 19.1953 38.5279C29.387 38.5279 37.2608 32.1505 37.2608 26.4177C37.2608 20.6848 28.9988 16.0374 18.8071 16.0374C8.6154 16.0374 0.353386 20.6848 0.353386 26.4177Z" fill="#DE7A22"/>
</g>
<path d="M18.8067 17.5374C13.92 17.5375 9.57008 18.655 6.49423 20.3851C3.37144 22.1417 1.85377 24.3336 1.85361 26.4173C1.85361 28.552 3.52741 31.1848 6.78915 33.3783C9.9804 35.5243 14.4003 37.0277 19.1954 37.0277C23.9854 37.0277 28.1966 35.5269 31.1798 33.4007C34.2123 31.2392 35.7608 28.6087 35.7608 26.4173C35.7607 24.3336 34.243 22.1417 31.1202 20.3851C28.0443 18.6549 23.6937 17.5374 18.8067 17.5374Z" stroke="#A15919" stroke-width="3"/>
<g filter="url(#filter1_i_16_2668)">
<path d="M0.576653 18.4538C0.576653 24.1866 9.22684 30.564 19.4185 30.564C29.6103 30.564 37.4841 24.1866 37.4841 18.4538C37.4841 12.7209 29.2221 8.07353 19.0304 8.07353C8.83867 8.07353 0.576653 12.7209 0.576653 18.4538Z" fill="#DE7A22"/>
</g>
<path d="M19.03 9.57353C14.1433 9.57359 9.79335 10.6911 6.7175 12.4212C3.5947 14.1778 2.07704 16.3697 2.07687 18.4534C2.07687 20.588 3.75067 23.2209 7.01242 25.4144C10.2037 27.5604 14.6236 29.0638 19.4187 29.0638C24.2087 29.0637 28.4199 27.563 31.403 25.4368C34.4356 23.2753 35.9841 20.6448 35.9841 18.4534C35.9839 16.3697 34.4663 14.1778 31.3435 12.4212C28.2675 10.691 23.9169 9.57353 19.03 9.57353Z" stroke="#A15919" stroke-width="3"/>
<mask id="path-13-inside-1_16_2668" fill="white">
<path d="M12.11 0C7.65124 0.00011797 4.03677 3.74426 4.03677 8.3623C4.03702 12.9801 7.65139 16.7235 12.11 16.7236C14.8993 16.7236 17.3589 15.2589 18.8092 13.0312C20.1627 15.2267 22.8523 16.7236 25.9508 16.7236C30.4095 16.7235 34.024 13.6254 34.0241 9.80371C34.0241 5.9819 30.4096 2.88392 25.9508 2.88379C23.4189 2.88379 21.1596 3.88305 19.6794 5.44629C18.5368 2.26575 15.5788 0 12.11 0Z"/>
</mask>
<g filter="url(#filter2_i_16_2668)">
<path d="M12.11 0C7.65124 0.00011797 4.03677 3.74426 4.03677 8.3623C4.03702 12.9801 7.65139 16.7235 12.11 16.7236C14.8993 16.7236 17.3589 15.2589 18.8092 13.0312C20.1627 15.2267 22.8523 16.7236 25.9508 16.7236C30.4095 16.7235 34.024 13.6254 34.0241 9.80371C34.0241 5.9819 30.4096 2.88392 25.9508 2.88379C23.4189 2.88379 21.1596 3.88305 19.6794 5.44629C18.5368 2.26575 15.5788 0 12.11 0Z" fill="#F3EDED"/>
</g>
<path d="M12.11 0L12.11 -2H12.11V0ZM4.03677 8.3623L2.03677 8.36241V8.3623H4.03677ZM12.11 16.7236V18.7236H12.11L12.11 16.7236ZM18.8092 13.0312L17.1332 11.94L18.8553 9.29494L20.5117 11.9817L18.8092 13.0312ZM25.9508 16.7236L25.9509 18.7236H25.9508V16.7236ZM34.0241 9.80371H36.0241V9.80377L34.0241 9.80371ZM25.9508 2.88379V0.883789H25.9509L25.9508 2.88379ZM19.6794 5.44629L21.1316 6.82142L18.8962 9.18213L17.7971 6.12244L19.6794 5.44629ZM12.11 0L12.1101 2C8.82156 2.00009 6.03677 4.78192 6.03677 8.3623H4.03677H2.03677C2.03677 2.7066 6.48091 -1.99985 12.11 -2L12.11 0ZM4.03677 8.3623L6.03677 8.3622C6.03697 11.9423 8.82152 14.7235 12.1101 14.7236L12.11 16.7236L12.11 18.7236C6.48126 18.7235 2.03708 14.018 2.03677 8.36241L4.03677 8.3623ZM12.11 16.7236V14.7236C14.1751 14.7236 16.025 13.6421 17.1332 11.94L18.8092 13.0312L20.4853 14.1225C18.6927 16.8757 15.6235 18.7236 12.11 18.7236V16.7236ZM18.8092 13.0312L20.5117 11.9817C21.4642 13.5266 23.4731 14.7236 25.9508 14.7236V16.7236V18.7236C22.2316 18.7236 18.8613 16.9267 17.1068 14.0808L18.8092 13.0312ZM25.9508 16.7236L25.9508 14.7236C29.6053 14.7235 32.024 12.2427 32.0241 9.80365L34.0241 9.80371L36.0241 9.80377C36.0239 15.0082 31.2138 18.7235 25.9509 18.7236L25.9508 16.7236ZM34.0241 9.80371H32.0241C32.0241 7.36465 29.6054 4.88389 25.9508 4.88379L25.9508 2.88379L25.9509 0.883789C31.2138 0.883939 36.0241 4.59915 36.0241 9.80371H34.0241ZM25.9508 2.88379V4.88379C23.9365 4.88379 22.2128 5.67959 21.1316 6.82142L19.6794 5.44629L18.2271 4.07115C20.1064 2.0865 22.9013 0.883789 25.9508 0.883789V2.88379ZM19.6794 5.44629L17.7971 6.12244C16.9183 3.67609 14.6729 2 12.11 2V0V-2C16.4847 -2 20.1553 0.855416 21.5616 4.77014L19.6794 5.44629Z" fill="url(#paint0_linear_16_2668)" mask="url(#path-13-inside-1_16_2668)"/>
<path d="M10.4791 8.81468C10.106 8.81468 9.794 8.50591 9.90174 8.14866C9.98895 7.85951 10.1327 7.58817 10.3271 7.35132C10.6657 6.93878 11.1368 6.6564 11.6602 6.55229C12.1836 6.44817 12.7269 6.52877 13.1976 6.78034C13.6682 7.03191 14.0371 7.43889 14.2413 7.93194C14.4456 8.42499 14.4725 8.97359 14.3176 9.48428C14.1627 9.99498 13.8355 10.4362 13.3918 10.7326C12.948 11.0291 12.4152 11.1626 11.8841 11.1103C11.5792 11.0803 11.2857 10.9901 11.0195 10.8473C10.6907 10.6708 10.693 10.2319 10.9569 9.96804C11.3825 9.54242 11.081 8.81468 10.4791 8.81468Z" fill="black"/>
<path d="M24.4347 9.50668C24.0616 9.50668 23.7496 9.19791 23.8574 8.84067C23.9446 8.55151 24.0883 8.28017 24.2827 8.04332C24.6213 7.63078 25.0924 7.3484 25.6158 7.24429C26.1392 7.14018 26.6826 7.22077 27.1532 7.47234C27.6239 7.72391 27.9927 8.13089 28.197 8.62394C28.4012 9.11699 28.4281 9.66559 28.2732 10.1763C28.1183 10.687 27.7911 11.1282 27.3474 11.4246C26.9037 11.7211 26.3708 11.8546 25.8397 11.8023C25.5348 11.7723 25.2413 11.6821 24.9752 11.5393C24.6464 11.3628 24.6486 10.9239 24.9125 10.66C25.3381 10.2344 25.0367 9.50668 24.4347 9.50668Z" fill="black"/>
<ellipse cx="2.30672" cy="0.865018" rx="2.30672" ry="0.865018" transform="matrix(-0.920487 -0.390773 -0.390773 0.920487 19.0303 19.6799)" fill="#70431B"/>
<ellipse cx="21.7592" cy="19.5747" rx="2.30672" ry="0.865018" transform="rotate(-23.0026 21.7592 19.5747)" fill="#70431B"/>
<defs>
<filter id="filter0_i_16_2668" x="0.353394" y="16.0374" width="36.9074" height="26.4905" filterUnits="userSpaceOnUse" color-interpolation-filters="sRGB">
<feFlood flood-opacity="0" result="BackgroundImageFix"/>
<feBlend mode="normal" in="SourceGraphic" in2="BackgroundImageFix" result="shape"/>
<feColorMatrix in="SourceAlpha" type="matrix" values="0 0 0 0 0 0 0 0 0 0 0 0 0 0 0 0 0 0 127 0" result="hardAlpha"/>
<feOffset dy="10"/>
<feGaussianBlur stdDeviation="2"/>
<feComposite in2="hardAlpha" operator="arithmetic" k2="-1" k3="1"/>
<feColorMatrix type="matrix" values="0 0 0 0 0.278431 0 0 0 0 0.156863 0 0 0 0 0.0509804 0 0 0 0.18 0"/>
<feBlend mode="normal" in2="shape" result="effect1_innerShadow_16_2668"/>
</filter>
<filter id="filter1_i_16_2668" x="0.57666" y="4.07353" width="36.9074" height="26.4905" filterUnits="userSpaceOnUse" color-interpolation-filters="sRGB">
<feFlood flood-opacity="0" result="BackgroundImageFix"/>
<feBlend mode="normal" in="SourceGraphic" in2="BackgroundImageFix" result="shape"/>
<feColorMatrix in="SourceAlpha" type="matrix" values="0 0 0 0 0 0 0 0 0 0 0 0 0 0 0 0 0 0 127 0" result="hardAlpha"/>
<feOffset dy="-9"/>
<feGaussianBlur stdDeviation="2"/>
<feComposite in2="hardAlpha" operator="arithmetic" k2="-1" k3="1"/>
<feColorMatrix type="matrix" values="0 0 0 0 0.278846 0 0 0 0 0.157298 0 0 0 0 0.050943 0 0 0 0.25 0"/>
<feBlend mode="normal" in2="shape" result="effect1_innerShadow_16_2668"/>
</filter>
<filter id="filter2_i_16_2668" x="4.03674" y="-3" width="29.9873" height="19.7236" filterUnits="userSpaceOnUse" color-interpolation-filters="sRGB">
<feFlood flood-opacity="0" result="BackgroundImageFix"/>
<feBlend mode="normal" in="SourceGraphic" in2="BackgroundImageFix" result="shape"/>
<feColorMatrix in="SourceAlpha" type="matrix" values="0 0 0 0 0 0 0 0 0 0 0 0 0 0 0 0 0 0 127 0" result="hardAlpha"/>
<feOffset dy="-3"/>
<feGaussianBlur stdDeviation="2"/>
<feComposite in2="hardAlpha" operator="arithmetic" k2="-1" k3="1"/>
<feColorMatrix type="matrix" values="0 0 0 0 0.423077 0 0 0 0 0.414941 0 0 0 0 0.414941 0 0 0 0.47 0"/>
<feBlend mode="normal" in2="shape" result="effect1_innerShadow_16_2668"/>
</filter>
<linearGradient id="paint0_linear_16_2668" x1="19.0304" y1="3.02508e-07" x2="24.6913" y2="24.9811" gradientUnits="userSpaceOnUse">
<stop stop-color="#EFE1E1"/>
<stop offset="1" stop-color="#A3A3A3"/>
</linearGradient>
</defs>
</svg>
