<svg width="39" height="42" viewBox="0 0 39 42" fill="none" xmlns="http://www.w3.org/2000/svg">
<path d="M31.6113 28.6806C29.9721 28.6806 28.5278 29.1734 27.5166 29.9208C26.5053 30.6683 25.9796 31.6202 25.9795 32.582C25.9795 33.5439 26.5051 34.4965 27.5166 35.2441C28.5278 35.9915 29.9721 36.4843 31.6113 36.4843C33.2505 36.4843 34.6948 35.9915 35.7061 35.2441C36.7175 34.4965 37.2432 33.5439 37.2432 32.582C37.243 31.6202 36.7174 30.6683 35.7061 29.9208C34.6948 29.1734 33.2506 28.6806 31.6113 28.6806Z" fill="#FB6464" stroke="#C02C2C" stroke-width="2"/>
<path d="M31.2249 35.4871C30.6796 35.6247 30.3487 36.1785 30.4862 36.7238C30.4974 36.7679 30.5672 36.9244 30.7829 37.1656C30.9841 37.3907 31.2571 37.6267 31.5615 37.8335C31.867 38.041 32.1743 38.1994 32.4369 38.2896C32.644 38.3607 32.7658 38.3681 32.8162 38.3682C32.824 38.3337 32.8329 38.2791 32.8358 38.1981C32.8487 37.8279 32.7394 37.3283 32.5973 36.7646C32.5195 36.4566 32.2743 36.0627 31.9348 35.7785C31.5821 35.4832 31.3277 35.4612 31.2249 35.4871Z" fill="#FB6464" stroke="#C02C2C" stroke-width="2"/>
<path d="M29.3291 36.3411C28.7839 36.4786 28.453 37.0324 28.5904 37.5777C28.6016 37.6218 28.6714 37.7783 28.8871 38.0195C29.0884 38.2446 29.3614 38.4806 29.6658 38.6874C29.9712 38.8949 30.2786 39.0533 30.5411 39.1435C30.7483 39.2146 30.8701 39.222 30.9205 39.2221C30.9283 39.1876 30.9372 39.133 30.9401 39.052C30.953 38.6818 30.8437 38.1823 30.7016 37.6186C30.6238 37.3105 30.3785 36.9166 30.0391 36.6324C29.6864 36.3371 29.432 36.3151 29.3291 36.3411Z" fill="#FB6464" stroke="#C02C2C" stroke-width="2"/>
<path d="M27.4333 37.195C26.8881 37.3326 26.5572 37.8863 26.6946 38.4317C26.7058 38.4758 26.7756 38.6323 26.9913 38.8735C27.1926 39.0985 27.4656 39.3346 27.77 39.5413C28.0754 39.7488 28.3828 39.9073 28.6453 39.9975C28.8525 40.0686 28.9743 40.076 29.0247 40.0761C29.0325 40.0415 29.0414 39.9869 29.0442 39.906C29.0572 39.5358 28.9479 39.0362 28.8058 38.4725C28.728 38.1645 28.4827 37.7706 28.1433 37.4864C27.7905 37.1911 27.5362 37.1691 27.4333 37.195Z" fill="#FB6464" stroke="#C02C2C" stroke-width="2"/>
<path d="M6.81412 28.6806C5.17487 28.6806 3.73061 29.1734 2.71939 29.9208C1.70806 30.6683 1.18243 31.6202 1.18228 32.582C1.18228 33.5439 1.70791 34.4965 2.71939 35.2441C3.7306 35.9915 5.17491 36.4843 6.81412 36.4843C8.45331 36.4843 9.89763 35.9915 10.9088 35.2441C11.9203 34.4965 12.446 33.5439 12.446 32.582C12.4458 31.6202 11.9202 30.6683 10.9088 29.9208C9.89762 29.1734 8.45336 28.6806 6.81412 28.6806Z" fill="#FB6464" stroke="#C02C2C" stroke-width="2"/>
<path d="M6.87628 35.4871C7.42155 35.6247 7.75243 36.1785 7.61497 36.7238C7.60376 36.7679 7.53397 36.9244 7.31827 37.1656C7.11703 37.3907 6.84399 37.6267 6.53962 37.8335C6.23418 38.041 5.92681 38.1994 5.66427 38.2896C5.45714 38.3607 5.33531 38.3681 5.28492 38.3682C5.27715 38.3337 5.26819 38.2791 5.26535 38.1981C5.25242 37.8279 5.36173 37.3283 5.50383 36.7646C5.5816 36.4566 5.82687 36.0627 6.16634 35.7785C6.51906 35.4832 6.77343 35.4612 6.87628 35.4871Z" fill="#FB6464" stroke="#C02C2C" stroke-width="2"/>
<path d="M8.77203 36.3411C9.3173 36.4786 9.64818 37.0324 9.51072 37.5777C9.49952 37.6218 9.42972 37.7783 9.21403 38.0195C9.01278 38.2446 8.73974 38.4806 8.43537 38.6874C8.12993 38.8949 7.82256 39.0533 7.56002 39.1435C7.35289 39.2146 7.23106 39.222 7.18067 39.2221C7.1729 39.1876 7.16395 39.133 7.1611 39.052C7.14817 38.6818 7.25748 38.1823 7.39958 37.6186C7.47736 37.3105 7.72262 36.9166 8.06209 36.6324C8.41482 36.3371 8.66918 36.3151 8.77203 36.3411Z" fill="#FB6464" stroke="#C02C2C" stroke-width="2"/>
<path d="M10.6679 37.195C11.2132 37.3326 11.5441 37.8863 11.4066 38.4317C11.3954 38.4758 11.3256 38.6323 11.1099 38.8735C10.9087 39.0985 10.6356 39.3346 10.3313 39.5413C10.0258 39.7488 9.71846 39.9073 9.45593 39.9975C9.2488 40.0686 9.12697 40.076 9.07657 40.0761C9.0688 40.0415 9.05985 39.9869 9.05701 39.906C9.04407 39.5358 9.15339 39.0362 9.29548 38.4725C9.37326 38.1645 9.61853 37.7706 9.95799 37.4864C10.3107 37.1911 10.5651 37.1691 10.6679 37.195Z" fill="#FB6464" stroke="#C02C2C" stroke-width="2"/>
<g filter="url(#filter0_i_16_2866)">
<path d="M0.535759 26.4177C0.535759 32.1505 9.18594 38.5279 19.3777 38.5279C29.5694 38.5279 37.4432 32.1505 37.4432 26.4177C37.4432 20.6848 29.1812 16.0374 18.9895 16.0374C8.79777 16.0374 0.535759 20.6848 0.535759 26.4177Z" fill="#FB6464"/>
</g>
<path d="M18.9891 17.5374C14.1024 17.5375 9.75245 18.655 6.67661 20.3851C3.55381 22.1417 2.03615 24.3336 2.03598 26.4173C2.03598 28.552 3.70978 31.1848 6.97153 33.3783C10.1628 35.5243 14.5827 37.0277 19.3778 37.0277C24.1678 37.0277 28.379 35.5269 31.3622 33.4007C34.3947 31.2392 35.9432 28.6087 35.9432 26.4173C35.943 24.3336 34.4254 22.1417 31.3026 20.3851C28.2266 18.6549 23.876 17.5374 18.9891 17.5374Z" stroke="#C02C2C" stroke-width="3"/>
<g filter="url(#filter1_i_16_2866)">
<path d="M0.759026 18.4537C0.759026 24.1866 9.40921 30.564 19.6009 30.564C29.7926 30.564 37.6665 24.1866 37.6665 18.4537C37.6665 12.7209 29.4045 8.07352 19.2127 8.07352C9.02104 8.07352 0.759026 12.7209 0.759026 18.4537Z" fill="#FB6464"/>
</g>
<path d="M19.2124 9.57352C14.3257 9.57357 9.97572 10.6911 6.89987 12.4212C3.77708 14.1777 2.25941 16.3697 2.25925 18.4534C2.25925 20.588 3.93305 23.2209 7.19479 25.4143C10.386 27.5604 14.806 29.0638 19.601 29.0638C24.3911 29.0637 28.6023 27.563 31.5854 25.4368C34.618 23.2753 36.1665 20.6448 36.1665 18.4534C36.1663 16.3697 34.6486 14.1777 31.5258 12.4212C28.4499 10.691 24.0993 9.57352 19.2124 9.57352Z" stroke="#C02C2C" stroke-width="3"/>
<mask id="path-13-inside-1_16_2866" fill="white">
<path d="M12.2924 0C7.83361 0.00011797 4.21915 3.74426 4.21915 8.3623C4.21939 12.9801 7.83377 16.7235 12.2924 16.7236C15.0817 16.7236 17.5413 15.2589 18.9916 13.0312C20.3451 15.2267 23.0347 16.7236 26.1332 16.7236C30.5919 16.7235 34.2063 13.6254 34.2065 9.80371C34.2065 5.9819 30.592 2.88392 26.1332 2.88379C23.6013 2.88379 21.342 3.88305 19.8617 5.44629C18.7192 2.26575 15.7612 0 12.2924 0Z"/>
</mask>
<g filter="url(#filter2_i_16_2866)">
<path d="M12.2924 0C7.83361 0.00011797 4.21915 3.74426 4.21915 8.3623C4.21939 12.9801 7.83377 16.7235 12.2924 16.7236C15.0817 16.7236 17.5413 15.2589 18.9916 13.0312C20.3451 15.2267 23.0347 16.7236 26.1332 16.7236C30.5919 16.7235 34.2063 13.6254 34.2065 9.80371C34.2065 5.9819 30.592 2.88392 26.1332 2.88379C23.6013 2.88379 21.342 3.88305 19.8617 5.44629C18.7192 2.26575 15.7612 0 12.2924 0Z" fill="#F3EDED"/>
</g>
<path d="M12.2924 0L12.2923 -2H12.2924V0ZM4.21915 8.3623L2.21915 8.36241V8.3623H4.21915ZM12.2924 16.7236V18.7236H12.2923L12.2924 16.7236ZM18.9916 13.0312L17.3155 11.94L19.0377 9.29494L20.6941 11.9817L18.9916 13.0312ZM26.1332 16.7236L26.1333 18.7236H26.1332V16.7236ZM34.2065 9.80371H36.2065V9.80377L34.2065 9.80371ZM26.1332 2.88379V0.883789H26.1333L26.1332 2.88379ZM19.8617 5.44629L21.314 6.82142L19.0786 9.18213L17.9795 6.12244L19.8617 5.44629ZM12.2924 0L12.2924 2C9.00394 2.00009 6.21915 4.78192 6.21915 8.3623H4.21915H2.21915C2.21915 2.7066 6.66329 -1.99985 12.2923 -2L12.2924 0ZM4.21915 8.3623L6.21915 8.3622C6.21934 11.9423 9.00389 14.7235 12.2924 14.7236L12.2924 16.7236L12.2923 18.7236C6.66363 18.7235 2.21945 14.018 2.21915 8.36241L4.21915 8.3623ZM12.2924 16.7236V14.7236C14.3575 14.7236 16.2074 13.6421 17.3155 11.94L18.9916 13.0312L20.6677 14.1225C18.8751 16.8757 15.8059 18.7236 12.2924 18.7236V16.7236ZM18.9916 13.0312L20.6941 11.9817C21.6465 13.5266 23.6554 14.7236 26.1332 14.7236V16.7236V18.7236C22.414 18.7236 19.0437 16.9267 17.2891 14.0808L18.9916 13.0312ZM26.1332 16.7236L26.1332 14.7236C29.7877 14.7235 32.2064 12.2427 32.2065 9.80365L34.2065 9.80371L36.2065 9.80377C36.2063 15.0082 31.3961 18.7235 26.1333 18.7236L26.1332 16.7236ZM34.2065 9.80371H32.2065C32.2065 7.36465 29.7878 4.88389 26.1332 4.88379L26.1332 2.88379L26.1333 0.883789C31.3961 0.883939 36.2065 4.59915 36.2065 9.80371H34.2065ZM26.1332 2.88379V4.88379C24.1188 4.88379 22.3952 5.67959 21.314 6.82142L19.8617 5.44629L18.4095 4.07115C20.2888 2.0865 23.0837 0.883789 26.1332 0.883789V2.88379ZM19.8617 5.44629L17.9795 6.12244C17.1007 3.67609 14.8553 2 12.2924 2V0V-2C16.6671 -2 20.3377 0.855416 21.744 4.77014L19.8617 5.44629Z" fill="url(#paint0_linear_16_2866)" mask="url(#path-13-inside-1_16_2866)"/>
<path d="M10.6615 8.81468C10.2884 8.81468 9.97638 8.50591 10.0841 8.14866C10.1713 7.85951 10.3151 7.58817 10.5095 7.35132C10.848 6.93878 11.3192 6.6564 11.8426 6.55229C12.366 6.44817 12.9093 6.52877 13.38 6.78034C13.8506 7.03191 14.2195 7.43889 14.4237 7.93194C14.6279 8.42499 14.6549 8.97359 14.5 9.48428C14.3451 9.99498 14.0179 10.4362 13.5741 10.7326C13.1304 11.0291 12.5976 11.1626 12.0665 11.1103C11.7616 11.0803 11.468 10.9901 11.2019 10.8473C10.8731 10.6708 10.8754 10.2319 11.1392 9.96804C11.5648 9.54242 11.2634 8.81468 10.6615 8.81468Z" fill="black"/>
<path d="M24.6171 9.5067C24.244 9.5067 23.932 9.19792 24.0397 8.84068C24.1269 8.55153 24.2707 8.28018 24.4651 8.04333C24.8037 7.6308 25.2748 7.34842 25.7982 7.2443C26.3216 7.14019 26.8649 7.22079 27.3356 7.47236C27.8062 7.72393 28.1751 8.13091 28.3793 8.62396C28.5836 9.117 28.6105 9.66561 28.4556 10.1763C28.3007 10.687 27.9735 11.1282 27.5298 11.4247C27.086 11.7212 26.5532 11.8546 26.0221 11.8023C25.7172 11.7723 25.4237 11.6821 25.1575 11.5393C24.8287 11.3628 24.831 10.9239 25.0949 10.6601C25.5205 10.2344 25.219 9.5067 24.6171 9.5067Z" fill="black"/>
<ellipse cx="2.30672" cy="0.865018" rx="2.30672" ry="0.865018" transform="matrix(-0.920487 -0.390773 -0.390773 0.920487 19.2127 19.6799)" fill="#701B1B"/>
<ellipse cx="21.9416" cy="19.5747" rx="2.30672" ry="0.865018" transform="rotate(-23.0026 21.9416 19.5747)" fill="#701B1B"/>
<defs>
<filter id="filter0_i_16_2866" x="0.535767" y="16.0374" width="36.9074" height="26.4905" filterUnits="userSpaceOnUse" color-interpolation-filters="sRGB">
<feFlood flood-opacity="0" result="BackgroundImageFix"/>
<feBlend mode="normal" in="SourceGraphic" in2="BackgroundImageFix" result="shape"/>
<feColorMatrix in="SourceAlpha" type="matrix" values="0 0 0 0 0 0 0 0 0 0 0 0 0 0 0 0 0 0 127 0" result="hardAlpha"/>
<feOffset dy="10"/>
<feGaussianBlur stdDeviation="2"/>
<feComposite in2="hardAlpha" operator="arithmetic" k2="-1" k3="1"/>
<feColorMatrix type="matrix" values="0 0 0 0 0.278431 0 0 0 0 0.156863 0 0 0 0 0.0509804 0 0 0 0.18 0"/>
<feBlend mode="normal" in2="shape" result="effect1_innerShadow_16_2866"/>
</filter>
<filter id="filter1_i_16_2866" x="0.759033" y="4.07352" width="36.9074" height="26.4905" filterUnits="userSpaceOnUse" color-interpolation-filters="sRGB">
<feFlood flood-opacity="0" result="BackgroundImageFix"/>
<feBlend mode="normal" in="SourceGraphic" in2="BackgroundImageFix" result="shape"/>
<feColorMatrix in="SourceAlpha" type="matrix" values="0 0 0 0 0 0 0 0 0 0 0 0 0 0 0 0 0 0 127 0" result="hardAlpha"/>
<feOffset dy="-9"/>
<feGaussianBlur stdDeviation="2"/>
<feComposite in2="hardAlpha" operator="arithmetic" k2="-1" k3="1"/>
<feColorMatrix type="matrix" values="0 0 0 0 0.278846 0 0 0 0 0.157298 0 0 0 0 0.050943 0 0 0 0.25 0"/>
<feBlend mode="normal" in2="shape" result="effect1_innerShadow_16_2866"/>
</filter>
<filter id="filter2_i_16_2866" x="4.21915" y="-3" width="29.9873" height="19.7236" filterUnits="userSpaceOnUse" color-interpolation-filters="sRGB">
<feFlood flood-opacity="0" result="BackgroundImageFix"/>
<feBlend mode="normal" in="SourceGraphic" in2="BackgroundImageFix" result="shape"/>
<feColorMatrix in="SourceAlpha" type="matrix" values="0 0 0 0 0 0 0 0 0 0 0 0 0 0 0 0 0 0 127 0" result="hardAlpha"/>
<feOffset dy="-3"/>
<feGaussianBlur stdDeviation="2"/>
<feComposite in2="hardAlpha" operator="arithmetic" k2="-1" k3="1"/>
<feColorMatrix type="matrix" values="0 0 0 0 0.423077 0 0 0 0 0.414941 0 0 0 0 0.414941 0 0 0 0.47 0"/>
<feBlend mode="normal" in2="shape" result="effect1_innerShadow_16_2866"/>
</filter>
<linearGradient id="paint0_linear_16_2866" x1="19.2128" y1="3.02508e-07" x2="24.8736" y2="24.9811" gradientUnits="userSpaceOnUse">
<stop stop-color="#EFE1E1"/>
<stop offset="1" stop-color="#A3A3A3"/>
</linearGradient>
</defs>
</svg>
