<svg width="39" height="42" viewBox="0 0 39 42" fill="none" xmlns="http://www.w3.org/2000/svg">
<path d="M31.4897 28.6806C29.8505 28.6806 28.4062 29.1734 27.395 29.9208C26.3837 30.6683 25.8581 31.6202 25.8579 32.582C25.8579 33.5439 26.3835 34.4965 27.395 35.2441C28.4062 35.9915 29.8505 36.4843 31.4897 36.4843C33.1289 36.4843 34.5733 35.9915 35.5845 35.2441C36.5959 34.4965 37.1216 33.5439 37.1216 32.582C37.1214 31.6202 36.5958 30.6683 35.5845 29.9208C34.5733 29.1734 33.129 28.6806 31.4897 28.6806Z" fill="#A922DE" stroke="#6B19A1" stroke-width="2"/>
<path d="M31.1033 35.4871C30.558 35.6247 30.2271 36.1785 30.3646 36.7238C30.3758 36.7679 30.4456 36.9244 30.6613 37.1656C30.8625 37.3907 31.1356 37.6267 31.4399 37.8335C31.7454 38.041 32.0527 38.1994 32.3153 38.2896C32.5224 38.3607 32.6442 38.3681 32.6946 38.3682C32.7024 38.3337 32.7114 38.2791 32.7142 38.1981C32.7271 37.8279 32.6178 37.3283 32.4757 36.7646C32.3979 36.4566 32.1527 36.0627 31.8132 35.7785C31.4605 35.4832 31.2061 35.4612 31.1033 35.4871Z" fill="#A922DE" stroke="#6B19A1" stroke-width="2"/>
<path d="M29.2076 36.3411C28.6623 36.4786 28.3314 37.0324 28.4689 37.5777C28.4801 37.6218 28.5499 37.7783 28.7656 38.0195C28.9668 38.2446 29.2398 38.4806 29.5442 38.6874C29.8497 38.8949 30.157 39.0533 30.4196 39.1435C30.6267 39.2146 30.7485 39.222 30.7989 39.2221C30.8067 39.1876 30.8156 39.133 30.8185 39.052C30.8314 38.6818 30.7221 38.1823 30.58 37.6186C30.5022 37.3105 30.257 36.9166 29.9175 36.6324C29.5648 36.3371 29.3104 36.3151 29.2076 36.3411Z" fill="#A922DE" stroke="#6B19A1" stroke-width="2"/>
<path d="M27.3117 37.195C26.7665 37.3326 26.4356 37.8863 26.5731 38.4317C26.5843 38.4758 26.6541 38.6323 26.8697 38.8735C27.071 39.0985 27.344 39.3346 27.6484 39.5413C27.9538 39.7488 28.2612 39.9073 28.5238 39.9975C28.7309 40.0686 28.8527 40.076 28.9031 40.0761C28.9109 40.0415 28.9198 39.9869 28.9227 39.906C28.9356 39.5358 28.8263 39.0362 28.6842 38.4725C28.6064 38.1645 28.3611 37.7706 28.0217 37.4864C27.669 37.1911 27.4146 37.1691 27.3117 37.195Z" fill="#A922DE" stroke="#6B19A1" stroke-width="2"/>
<path d="M6.69254 28.6806C5.05329 28.6806 3.60903 29.1734 2.59781 29.9208C1.58648 30.6683 1.06085 31.6202 1.0607 32.582C1.0607 33.5439 1.58633 34.4965 2.59781 35.2441C3.60902 35.9915 5.05333 36.4843 6.69254 36.4843C8.33173 36.4843 9.77604 35.9915 10.7873 35.2441C11.7987 34.4965 12.3244 33.5439 12.3244 32.582C12.3242 31.6202 11.7986 30.6683 10.7873 29.9208C9.77604 29.1734 8.33178 28.6806 6.69254 28.6806Z" fill="#A922DE" stroke="#6B19A1" stroke-width="2"/>
<path d="M6.7547 35.4871C7.29997 35.6247 7.63085 36.1785 7.49338 36.7238C7.48218 36.7679 7.41238 36.9244 7.19669 37.1656C6.99544 37.3907 6.72241 37.6267 6.41804 37.8335C6.11259 38.041 5.80522 38.1994 5.54269 38.2896C5.33556 38.3607 5.21373 38.3681 5.16333 38.3682C5.15556 38.3337 5.14661 38.2791 5.14377 38.1981C5.13083 37.8279 5.24015 37.3283 5.38225 36.7646C5.46002 36.4566 5.70529 36.0627 6.04476 35.7785C6.39748 35.4832 6.65185 35.4612 6.7547 35.4871Z" fill="#A922DE" stroke="#6B19A1" stroke-width="2"/>
<path d="M8.65045 36.3411C9.19572 36.4786 9.5266 37.0324 9.38914 37.5777C9.37793 37.6218 9.30814 37.7783 9.09244 38.0195C8.8912 38.2446 8.61816 38.4806 8.31379 38.6874C8.00835 38.8949 7.70098 39.0533 7.43844 39.1435C7.23131 39.2146 7.10948 39.222 7.05909 39.2221C7.05132 39.1876 7.04236 39.133 7.03952 39.052C7.02659 38.6818 7.1359 38.1823 7.278 37.6186C7.35577 37.3105 7.60104 36.9166 7.94051 36.6324C8.29323 36.3371 8.5476 36.3151 8.65045 36.3411Z" fill="#A922DE" stroke="#6B19A1" stroke-width="2"/>
<path d="M10.5464 37.195C11.0916 37.3326 11.4225 37.8863 11.285 38.4317C11.2738 38.4758 11.204 38.6323 10.9883 38.8735C10.7871 39.0985 10.5141 39.3346 10.2097 39.5413C9.90425 39.7488 9.59688 39.9073 9.33434 39.9975C9.12722 40.0686 9.00539 40.076 8.95499 40.0761C8.94722 40.0415 8.93827 39.9869 8.93543 39.906C8.92249 39.5358 9.03181 39.0362 9.1739 38.4725C9.25168 38.1645 9.49694 37.7706 9.83641 37.4864C10.1891 37.1911 10.4435 37.1691 10.5464 37.195Z" fill="#A922DE" stroke="#6B19A1" stroke-width="2"/>
<g filter="url(#filter0_i_16_2812)">
<path d="M0.414177 26.4177C0.414177 32.1505 9.06436 38.5279 19.2561 38.5279C29.4478 38.5279 37.3216 32.1505 37.3216 26.4177C37.3216 20.6848 29.0596 16.0374 18.8679 16.0374C8.67619 16.0374 0.414177 20.6848 0.414177 26.4177Z" fill="#A922DE"/>
</g>
<path d="M18.8675 17.5374C13.9808 17.5375 9.63087 18.655 6.55502 20.3851C3.43223 22.1417 1.91456 24.3336 1.9144 26.4173C1.9144 28.552 3.5882 31.1848 6.84995 33.3783C10.0412 35.5243 14.4611 37.0277 19.2562 37.0277C24.0462 37.0277 28.2574 35.5269 31.2406 33.4007C34.2731 31.2392 35.8216 28.6087 35.8216 26.4173C35.8215 24.3336 34.3038 22.1417 31.181 20.3851C28.1051 18.6549 23.7544 17.5374 18.8675 17.5374Z" stroke="#6B19A1" stroke-width="3"/>
<g filter="url(#filter1_i_16_2812)">
<path d="M0.637444 18.4538C0.637444 24.1866 9.28763 30.564 19.4793 30.564C29.671 30.564 37.5449 24.1866 37.5449 18.4538C37.5449 12.7209 29.2829 8.07353 19.0912 8.07353C8.89946 8.07353 0.637444 12.7209 0.637444 18.4538Z" fill="#A922DE"/>
</g>
<path d="M19.0908 9.57353C14.2041 9.57359 9.85414 10.6911 6.77829 12.4212C3.6555 14.1778 2.13783 16.3697 2.13766 18.4534C2.13766 20.588 3.81146 23.2209 7.07321 25.4144C10.2645 27.5604 14.6844 29.0638 19.4795 29.0638C24.2695 29.0637 28.4807 27.563 31.4638 25.4368C34.4964 23.2753 36.0449 20.6448 36.0449 18.4534C36.0447 16.3697 34.5271 14.1778 31.4043 12.4212C28.3283 10.691 23.9777 9.57353 19.0908 9.57353Z" stroke="#6B19A1" stroke-width="3"/>
<mask id="path-13-inside-1_16_2812" fill="white">
<path d="M12.1708 0C7.71203 0.00011797 4.09756 3.74426 4.09756 8.3623C4.09781 12.9801 7.71218 16.7235 12.1708 16.7236C14.9601 16.7236 17.4197 15.2589 18.87 13.0312C20.2235 15.2267 22.9131 16.7236 26.0116 16.7236C30.4703 16.7235 34.0848 13.6254 34.0849 9.80371C34.0849 5.9819 30.4704 2.88392 26.0116 2.88379C23.4797 2.88379 21.2204 3.88305 19.7401 5.44629C18.5976 2.26575 15.6396 0 12.1708 0Z"/>
</mask>
<g filter="url(#filter2_i_16_2812)">
<path d="M12.1708 0C7.71203 0.00011797 4.09756 3.74426 4.09756 8.3623C4.09781 12.9801 7.71218 16.7235 12.1708 16.7236C14.9601 16.7236 17.4197 15.2589 18.87 13.0312C20.2235 15.2267 22.9131 16.7236 26.0116 16.7236C30.4703 16.7235 34.0848 13.6254 34.0849 9.80371C34.0849 5.9819 30.4704 2.88392 26.0116 2.88379C23.4797 2.88379 21.2204 3.88305 19.7401 5.44629C18.5976 2.26575 15.6396 0 12.1708 0Z" fill="#F3EDED"/>
</g>
<path d="M12.1708 0L12.1708 -2H12.1708V0ZM4.09756 8.3623L2.09756 8.36241V8.3623H4.09756ZM12.1708 16.7236V18.7236H12.1708L12.1708 16.7236ZM18.87 13.0312L17.194 11.94L18.9161 9.29494L20.5725 11.9817L18.87 13.0312ZM26.0116 16.7236L26.0117 18.7236H26.0116V16.7236ZM34.0849 9.80371H36.0849V9.80377L34.0849 9.80371ZM26.0116 2.88379V0.883789H26.0117L26.0116 2.88379ZM19.7401 5.44629L21.1924 6.82142L18.957 9.18213L17.8579 6.12244L19.7401 5.44629ZM12.1708 0L12.1709 2C8.88235 2.00009 6.09756 4.78192 6.09756 8.3623H4.09756H2.09756C2.09756 2.7066 6.5417 -1.99985 12.1708 -2L12.1708 0ZM4.09756 8.3623L6.09756 8.3622C6.09776 11.9423 8.88231 14.7235 12.1709 14.7236L12.1708 16.7236L12.1708 18.7236C6.54205 18.7235 2.09787 14.018 2.09756 8.36241L4.09756 8.3623ZM12.1708 16.7236V14.7236C14.2359 14.7236 16.0858 13.6421 17.194 11.94L18.87 13.0312L20.5461 14.1225C18.7535 16.8757 15.6843 18.7236 12.1708 18.7236V16.7236ZM18.87 13.0312L20.5725 11.9817C21.525 13.5266 23.5338 14.7236 26.0116 14.7236V16.7236V18.7236C22.2924 18.7236 18.9221 16.9267 17.1676 14.0808L18.87 13.0312ZM26.0116 16.7236L26.0116 14.7236C29.6661 14.7235 32.0848 12.2427 32.0849 9.80365L34.0849 9.80371L36.0849 9.80377C36.0847 15.0082 31.2745 18.7235 26.0117 18.7236L26.0116 16.7236ZM34.0849 9.80371H32.0849C32.0849 7.36465 29.6662 4.88389 26.0116 4.88379L26.0116 2.88379L26.0117 0.883789C31.2745 0.883939 36.0849 4.59915 36.0849 9.80371H34.0849ZM26.0116 2.88379V4.88379C23.9973 4.88379 22.2736 5.67959 21.1924 6.82142L19.7401 5.44629L18.2879 4.07115C20.1672 2.0865 22.9621 0.883789 26.0116 0.883789V2.88379ZM19.7401 5.44629L17.8579 6.12244C16.9791 3.67609 14.7337 2 12.1708 2V0V-2C16.5455 -2 20.2161 0.855416 21.6224 4.77014L19.7401 5.44629Z" fill="url(#paint0_linear_16_2812)" mask="url(#path-13-inside-1_16_2812)"/>
<path d="M10.5399 8.81468C10.1668 8.81468 9.85479 8.50591 9.96253 8.14866C10.0497 7.85951 10.1935 7.58817 10.3879 7.35132C10.7264 6.93878 11.1976 6.6564 11.721 6.55229C12.2444 6.44817 12.7877 6.52877 13.2584 6.78034C13.729 7.03191 14.0979 7.43889 14.3021 7.93194C14.5064 8.42499 14.5333 8.97359 14.3784 9.48428C14.2235 9.99498 13.8963 10.4362 13.4525 10.7326C13.0088 11.0291 12.476 11.1626 11.9449 11.1103C11.64 11.0803 11.3464 10.9901 11.0803 10.8473C10.7515 10.6708 10.7538 10.2319 11.0176 9.96804C11.4433 9.54242 11.1418 8.81468 10.5399 8.81468Z" fill="black"/>
<path d="M24.4955 9.50668C24.1224 9.50668 23.8104 9.19791 23.9182 8.84067C24.0054 8.55151 24.1491 8.28017 24.3435 8.04332C24.6821 7.63078 25.1532 7.3484 25.6766 7.24429C26.2 7.14018 26.7434 7.22077 27.214 7.47234C27.6847 7.72391 28.0535 8.13089 28.2578 8.62394C28.462 9.11699 28.4889 9.66559 28.334 10.1763C28.1791 10.687 27.8519 11.1282 27.4082 11.4246C26.9644 11.7211 26.4316 11.8546 25.9005 11.8023C25.5956 11.7723 25.3021 11.6821 25.036 11.5393C24.7072 11.3628 24.7094 10.9239 24.9733 10.66C25.3989 10.2344 25.0975 9.50668 24.4955 9.50668Z" fill="black"/>
<ellipse cx="2.30672" cy="0.865018" rx="2.30672" ry="0.865018" transform="matrix(-0.920487 -0.390773 -0.390773 0.920487 19.0911 19.6799)" fill="#701B5B"/>
<ellipse cx="21.82" cy="19.5747" rx="2.30672" ry="0.865018" transform="rotate(-23.0026 21.82 19.5747)" fill="#701B5B"/>
<defs>
<filter id="filter0_i_16_2812" x="0.414185" y="16.0374" width="36.9074" height="26.4905" filterUnits="userSpaceOnUse" color-interpolation-filters="sRGB">
<feFlood flood-opacity="0" result="BackgroundImageFix"/>
<feBlend mode="normal" in="SourceGraphic" in2="BackgroundImageFix" result="shape"/>
<feColorMatrix in="SourceAlpha" type="matrix" values="0 0 0 0 0 0 0 0 0 0 0 0 0 0 0 0 0 0 127 0" result="hardAlpha"/>
<feOffset dy="10"/>
<feGaussianBlur stdDeviation="2"/>
<feComposite in2="hardAlpha" operator="arithmetic" k2="-1" k3="1"/>
<feColorMatrix type="matrix" values="0 0 0 0 0.278431 0 0 0 0 0.156863 0 0 0 0 0.0509804 0 0 0 0.18 0"/>
<feBlend mode="normal" in2="shape" result="effect1_innerShadow_16_2812"/>
</filter>
<filter id="filter1_i_16_2812" x="0.637451" y="4.07353" width="36.9074" height="26.4905" filterUnits="userSpaceOnUse" color-interpolation-filters="sRGB">
<feFlood flood-opacity="0" result="BackgroundImageFix"/>
<feBlend mode="normal" in="SourceGraphic" in2="BackgroundImageFix" result="shape"/>
<feColorMatrix in="SourceAlpha" type="matrix" values="0 0 0 0 0 0 0 0 0 0 0 0 0 0 0 0 0 0 127 0" result="hardAlpha"/>
<feOffset dy="-9"/>
<feGaussianBlur stdDeviation="2"/>
<feComposite in2="hardAlpha" operator="arithmetic" k2="-1" k3="1"/>
<feColorMatrix type="matrix" values="0 0 0 0 0.278846 0 0 0 0 0.157298 0 0 0 0 0.050943 0 0 0 0.25 0"/>
<feBlend mode="normal" in2="shape" result="effect1_innerShadow_16_2812"/>
</filter>
<filter id="filter2_i_16_2812" x="4.09756" y="-3" width="29.9873" height="19.7236" filterUnits="userSpaceOnUse" color-interpolation-filters="sRGB">
<feFlood flood-opacity="0" result="BackgroundImageFix"/>
<feBlend mode="normal" in="SourceGraphic" in2="BackgroundImageFix" result="shape"/>
<feColorMatrix in="SourceAlpha" type="matrix" values="0 0 0 0 0 0 0 0 0 0 0 0 0 0 0 0 0 0 127 0" result="hardAlpha"/>
<feOffset dy="-3"/>
<feGaussianBlur stdDeviation="2"/>
<feComposite in2="hardAlpha" operator="arithmetic" k2="-1" k3="1"/>
<feColorMatrix type="matrix" values="0 0 0 0 0.423077 0 0 0 0 0.414941 0 0 0 0 0.414941 0 0 0 0.47 0"/>
<feBlend mode="normal" in2="shape" result="effect1_innerShadow_16_2812"/>
</filter>
<linearGradient id="paint0_linear_16_2812" x1="19.0912" y1="3.02508e-07" x2="24.752" y2="24.9811" gradientUnits="userSpaceOnUse">
<stop stop-color="#EFE1E1"/>
<stop offset="1" stop-color="#A3A3A3"/>
</linearGradient>
</defs>
</svg>
