<svg width="39" height="42" viewBox="0 0 39 42" fill="none" xmlns="http://www.w3.org/2000/svg">
<path d="M31.7329 28.6806C30.0937 28.6806 28.6494 29.1734 27.6382 29.9208C26.6269 30.6683 26.1012 31.6202 26.1011 32.582C26.1011 33.5439 26.6267 34.4965 27.6382 35.2441C28.6494 35.9915 30.0937 36.4843 31.7329 36.4843C33.3721 36.4843 34.8164 35.9915 35.8276 35.2441C36.8391 34.4965 37.3647 33.5439 37.3647 32.582C37.3646 31.6202 36.839 30.6683 35.8276 29.9208C34.8164 29.1734 33.3722 28.6806 31.7329 28.6806Z" fill="#DE2222" stroke="#A11919" stroke-width="2"/>
<path d="M31.3464 35.4871C30.8012 35.6247 30.4703 36.1785 30.6078 36.7238C30.619 36.7679 30.6888 36.9244 30.9044 37.1656C31.1057 37.3907 31.3787 37.6267 31.6831 37.8335C31.9885 38.041 32.2959 38.1994 32.5584 38.2896C32.7656 38.3607 32.8874 38.3681 32.9378 38.3682C32.9456 38.3337 32.9545 38.2791 32.9574 38.1981C32.9703 37.8279 32.861 37.3283 32.7189 36.7646C32.6411 36.4566 32.3958 36.0627 32.0564 35.7785C31.7037 35.4832 31.4493 35.4612 31.3464 35.4871Z" fill="#DE2222" stroke="#A11919" stroke-width="2"/>
<path d="M29.4507 36.3411C28.9054 36.4786 28.5746 37.0324 28.712 37.5777C28.7232 37.6218 28.793 37.7783 29.0087 38.0195C29.21 38.2446 29.483 38.4806 29.7874 38.6874C30.0928 38.8949 30.4002 39.0533 30.6627 39.1435C30.8699 39.2146 30.9917 39.222 31.0421 39.2221C31.0499 39.1876 31.0588 39.133 31.0616 39.052C31.0746 38.6818 30.9653 38.1823 30.8232 37.6186C30.7454 37.3105 30.5001 36.9166 30.1607 36.6324C29.8079 36.3371 29.5536 36.3151 29.4507 36.3411Z" fill="#DE2222" stroke="#A11919" stroke-width="2"/>
<path d="M27.5549 37.195C27.0096 37.3326 26.6788 37.8863 26.8162 38.4317C26.8274 38.4758 26.8972 38.6323 27.1129 38.8735C27.3142 39.0985 27.5872 39.3346 27.8916 39.5413C28.197 39.7488 28.5044 39.9073 28.7669 39.9975C28.974 40.0686 29.0959 40.076 29.1463 40.0761C29.154 40.0415 29.163 39.9869 29.1658 39.906C29.1788 39.5358 29.0695 39.0362 28.9274 38.4725C28.8496 38.1645 28.6043 37.7706 28.2648 37.4864C27.9121 37.1911 27.6578 37.1691 27.5549 37.195Z" fill="#DE2222" stroke="#A11919" stroke-width="2"/>
<path d="M6.9357 28.6806C5.29646 28.6806 3.85219 29.1734 2.84097 29.9208C1.82964 30.6683 1.30401 31.6202 1.30386 32.582C1.30386 33.5439 1.8295 34.4965 2.84097 35.2441C3.85219 35.9915 5.29649 36.4843 6.9357 36.4843C8.5749 36.4843 10.0192 35.9915 11.0304 35.2441C12.0419 34.4965 12.5675 33.5439 12.5675 32.582C12.5674 31.6202 12.0418 30.6683 11.0304 29.9208C10.0192 29.1734 8.57494 28.6806 6.9357 28.6806Z" fill="#DE2222" stroke="#A11919" stroke-width="2"/>
<path d="M6.99786 35.4871C7.54313 35.6247 7.87401 36.1785 7.73655 36.7238C7.72535 36.7679 7.65555 36.9244 7.43986 37.1656C7.23861 37.3907 6.96557 37.6267 6.6612 37.8335C6.35576 38.041 6.04839 38.1994 5.78585 38.2896C5.57872 38.3607 5.4569 38.3681 5.4065 38.3682C5.39873 38.3337 5.38978 38.2791 5.38693 38.1981C5.374 37.8279 5.48331 37.3283 5.62541 36.7646C5.70319 36.4566 5.94845 36.0627 6.28792 35.7785C6.64065 35.4832 6.89501 35.4612 6.99786 35.4871Z" fill="#DE2222" stroke="#A11919" stroke-width="2"/>
<path d="M8.89361 36.3411C9.43888 36.4786 9.76976 37.0324 9.6323 37.5777C9.6211 37.6218 9.5513 37.7783 9.33561 38.0195C9.13436 38.2446 8.86132 38.4806 8.55695 38.6874C8.25151 38.8949 7.94414 39.0533 7.6816 39.1435C7.47448 39.2146 7.35265 39.222 7.30225 39.2221C7.29448 39.1876 7.28553 39.133 7.28269 39.052C7.26975 38.6818 7.37906 38.1823 7.52116 37.6186C7.59894 37.3105 7.8442 36.9166 8.18367 36.6324C8.5364 36.3371 8.79077 36.3151 8.89361 36.3411Z" fill="#DE2222" stroke="#A11919" stroke-width="2"/>
<path d="M10.7895 37.195C11.3348 37.3326 11.6657 37.8863 11.5282 38.4317C11.517 38.4758 11.4472 38.6323 11.2315 38.8735C11.0303 39.0985 10.7572 39.3346 10.4529 39.5413C10.1474 39.7488 9.84005 39.9073 9.57751 39.9975C9.37038 40.0686 9.24855 40.076 9.19815 40.0761C9.19038 40.0415 9.18143 39.9869 9.17859 39.906C9.16566 39.5358 9.27497 39.0362 9.41707 38.4725C9.49484 38.1645 9.74011 37.7706 10.0796 37.4864C10.4323 37.1911 10.6867 37.1691 10.7895 37.195Z" fill="#DE2222" stroke="#A11919" stroke-width="2"/>
<g filter="url(#filter0_i_16_2902)">
<path d="M0.657341 26.4177C0.657341 32.1505 9.30752 38.5279 19.4992 38.5279C29.6909 38.5279 37.5648 32.1505 37.5648 26.4177C37.5648 20.6848 29.3028 16.0374 19.1111 16.0374C8.91935 16.0374 0.657341 20.6848 0.657341 26.4177Z" fill="#DE2222"/>
</g>
<path d="M19.1107 17.5374C14.224 17.5375 9.87403 18.655 6.79819 20.3851C3.67539 22.1417 2.15773 24.3336 2.15756 26.4173C2.15756 28.552 3.83136 31.1848 7.09311 33.3783C10.2844 35.5243 14.7043 37.0277 19.4994 37.0277C24.2894 37.0277 28.5006 35.5269 31.4837 33.4007C34.5163 31.2392 36.0648 28.6087 36.0648 26.4173C36.0646 24.3336 34.547 22.1417 31.4242 20.3851C28.3482 18.6549 23.9976 17.5374 19.1107 17.5374Z" stroke="#A11919" stroke-width="3"/>
<g filter="url(#filter1_i_16_2902)">
<path d="M0.880608 18.4537C0.880608 24.1866 9.53079 30.564 19.7225 30.564C29.9142 30.564 37.7881 24.1866 37.7881 18.4537C37.7881 12.7209 29.526 8.07352 19.3343 8.07352C9.14262 8.07352 0.880608 12.7209 0.880608 18.4537Z" fill="#DE2222"/>
</g>
<path d="M19.334 9.57352C14.4473 9.57357 10.0973 10.6911 7.02145 12.4212C3.89866 14.1777 2.38099 16.3697 2.38083 18.4534C2.38083 20.588 4.05463 23.2209 7.31638 25.4143C10.5076 27.5604 14.9276 29.0638 19.7226 29.0638C24.5126 29.0637 28.7239 27.563 31.707 25.4368C34.7395 23.2753 36.2881 20.6448 36.2881 18.4534C36.2879 16.3697 34.7702 14.1777 31.6474 12.4212C28.5715 10.691 24.2209 9.57352 19.334 9.57352Z" stroke="#A11919" stroke-width="3"/>
<mask id="path-13-inside-1_16_2902" fill="white">
<path d="M12.414 0C7.95519 0.00011797 4.34073 3.74426 4.34073 8.3623C4.34098 12.9801 7.95535 16.7235 12.414 16.7236C15.2033 16.7236 17.6628 15.2589 19.1132 13.0312C20.4667 15.2267 23.1563 16.7236 26.2548 16.7236C30.7135 16.7235 34.3279 13.6254 34.328 9.80371C34.328 5.9819 30.7135 2.88392 26.2548 2.88379C23.7229 2.88379 21.4635 3.88305 19.9833 5.44629C18.8408 2.26575 15.8828 0 12.414 0Z"/>
</mask>
<g filter="url(#filter2_i_16_2902)">
<path d="M12.414 0C7.95519 0.00011797 4.34073 3.74426 4.34073 8.3623C4.34098 12.9801 7.95535 16.7235 12.414 16.7236C15.2033 16.7236 17.6628 15.2589 19.1132 13.0312C20.4667 15.2267 23.1563 16.7236 26.2548 16.7236C30.7135 16.7235 34.3279 13.6254 34.328 9.80371C34.328 5.9819 30.7135 2.88392 26.2548 2.88379C23.7229 2.88379 21.4635 3.88305 19.9833 5.44629C18.8408 2.26575 15.8828 0 12.414 0Z" fill="#F3EDED"/>
</g>
<path d="M12.414 0L12.4139 -2H12.414V0ZM4.34073 8.3623L2.34073 8.36241V8.3623H4.34073ZM12.414 16.7236V18.7236H12.4139L12.414 16.7236ZM19.1132 13.0312L17.4371 11.94L19.1593 9.29494L20.8156 11.9817L19.1132 13.0312ZM26.2548 16.7236L26.2548 18.7236H26.2548V16.7236ZM34.328 9.80371H36.328V9.80377L34.328 9.80371ZM26.2548 2.88379V0.883789H26.2548L26.2548 2.88379ZM19.9833 5.44629L21.4355 6.82142L19.2002 9.18213L18.1011 6.12244L19.9833 5.44629ZM12.414 0L12.414 2C9.12552 2.00009 6.34073 4.78192 6.34073 8.3623H4.34073H2.34073C2.34073 2.7066 6.78487 -1.99985 12.4139 -2L12.414 0ZM4.34073 8.3623L6.34073 8.3622C6.34092 11.9423 9.12548 14.7235 12.414 14.7236L12.414 16.7236L12.4139 18.7236C6.78522 18.7235 2.34103 14.018 2.34073 8.36241L4.34073 8.3623ZM12.414 16.7236V14.7236C14.4791 14.7236 16.329 13.6421 17.4371 11.94L19.1132 13.0312L20.7893 14.1225C18.9967 16.8757 15.9275 18.7236 12.414 18.7236V16.7236ZM19.1132 13.0312L20.8156 11.9817C21.7681 13.5266 23.777 14.7236 26.2548 14.7236V16.7236V18.7236C22.5356 18.7236 19.1652 16.9267 17.4107 14.0808L19.1132 13.0312ZM26.2548 16.7236L26.2547 14.7236C29.9092 14.7235 32.328 12.2427 32.328 9.80365L34.328 9.80371L36.328 9.80377C36.3279 15.0082 31.5177 18.7235 26.2548 18.7236L26.2548 16.7236ZM34.328 9.80371H32.328C32.328 7.36465 29.9094 4.88389 26.2547 4.88379L26.2548 2.88379L26.2548 0.883789C31.5177 0.883939 36.328 4.59915 36.328 9.80371H34.328ZM26.2548 2.88379V4.88379C24.2404 4.88379 22.5168 5.67959 21.4355 6.82142L19.9833 5.44629L18.5311 4.07115C20.4103 2.0865 23.2053 0.883789 26.2548 0.883789V2.88379ZM19.9833 5.44629L18.1011 6.12244C17.2223 3.67609 14.9769 2 12.414 2V0V-2C16.7887 -2 20.4593 0.855416 21.8655 4.77014L19.9833 5.44629Z" fill="url(#paint0_linear_16_2902)" mask="url(#path-13-inside-1_16_2902)"/>
<path d="M10.7831 8.81468C10.4099 8.81468 10.098 8.50591 10.2057 8.14866C10.2929 7.85951 10.4367 7.58817 10.6311 7.35132C10.9696 6.93878 11.4407 6.6564 11.9642 6.55229C12.4876 6.44817 13.0309 6.52877 13.5015 6.78034C13.9722 7.03191 14.3411 7.43889 14.5453 7.93194C14.7495 8.42499 14.7765 8.97359 14.6216 9.48428C14.4666 9.99498 14.1394 10.4362 13.6957 10.7326C13.252 11.0291 12.7192 11.1626 12.1881 11.1103C11.8831 11.0803 11.5896 10.9901 11.3235 10.8473C10.9947 10.6708 10.997 10.2319 11.2608 9.96804C11.6864 9.54242 11.385 8.81468 10.7831 8.81468Z" fill="black"/>
<path d="M24.7387 9.5067C24.3656 9.5067 24.0536 9.19792 24.1613 8.84068C24.2485 8.55153 24.3923 8.28018 24.5867 8.04333C24.9252 7.6308 25.3964 7.34842 25.9198 7.2443C26.4432 7.14019 26.9865 7.22079 27.4572 7.47236C27.9278 7.72393 28.2967 8.13091 28.5009 8.62396C28.7052 9.117 28.7321 9.66561 28.5772 10.1763C28.4223 10.687 28.0951 11.1282 27.6513 11.4247C27.2076 11.7212 26.6748 11.8546 26.1437 11.8023C25.8388 11.7723 25.5452 11.6821 25.2791 11.5393C24.9503 11.3628 24.9526 10.9239 25.2164 10.6601C25.6421 10.2344 25.3406 9.5067 24.7387 9.5067Z" fill="black"/>
<ellipse cx="2.30672" cy="0.865018" rx="2.30672" ry="0.865018" transform="matrix(-0.920487 -0.390773 -0.390773 0.920487 19.3343 19.6799)" fill="#701B1B"/>
<ellipse cx="22.0631" cy="19.5747" rx="2.30672" ry="0.865018" transform="rotate(-23.0026 22.0631 19.5747)" fill="#701B1B"/>
<defs>
<filter id="filter0_i_16_2902" x="0.657349" y="16.0374" width="36.9074" height="26.4905" filterUnits="userSpaceOnUse" color-interpolation-filters="sRGB">
<feFlood flood-opacity="0" result="BackgroundImageFix"/>
<feBlend mode="normal" in="SourceGraphic" in2="BackgroundImageFix" result="shape"/>
<feColorMatrix in="SourceAlpha" type="matrix" values="0 0 0 0 0 0 0 0 0 0 0 0 0 0 0 0 0 0 127 0" result="hardAlpha"/>
<feOffset dy="10"/>
<feGaussianBlur stdDeviation="2"/>
<feComposite in2="hardAlpha" operator="arithmetic" k2="-1" k3="1"/>
<feColorMatrix type="matrix" values="0 0 0 0 0.278431 0 0 0 0 0.156863 0 0 0 0 0.0509804 0 0 0 0.18 0"/>
<feBlend mode="normal" in2="shape" result="effect1_innerShadow_16_2902"/>
</filter>
<filter id="filter1_i_16_2902" x="0.880615" y="4.07352" width="36.9074" height="26.4905" filterUnits="userSpaceOnUse" color-interpolation-filters="sRGB">
<feFlood flood-opacity="0" result="BackgroundImageFix"/>
<feBlend mode="normal" in="SourceGraphic" in2="BackgroundImageFix" result="shape"/>
<feColorMatrix in="SourceAlpha" type="matrix" values="0 0 0 0 0 0 0 0 0 0 0 0 0 0 0 0 0 0 127 0" result="hardAlpha"/>
<feOffset dy="-9"/>
<feGaussianBlur stdDeviation="2"/>
<feComposite in2="hardAlpha" operator="arithmetic" k2="-1" k3="1"/>
<feColorMatrix type="matrix" values="0 0 0 0 0.278846 0 0 0 0 0.157298 0 0 0 0 0.050943 0 0 0 0.25 0"/>
<feBlend mode="normal" in2="shape" result="effect1_innerShadow_16_2902"/>
</filter>
<filter id="filter2_i_16_2902" x="4.34073" y="-3" width="29.9873" height="19.7236" filterUnits="userSpaceOnUse" color-interpolation-filters="sRGB">
<feFlood flood-opacity="0" result="BackgroundImageFix"/>
<feBlend mode="normal" in="SourceGraphic" in2="BackgroundImageFix" result="shape"/>
<feColorMatrix in="SourceAlpha" type="matrix" values="0 0 0 0 0 0 0 0 0 0 0 0 0 0 0 0 0 0 127 0" result="hardAlpha"/>
<feOffset dy="-3"/>
<feGaussianBlur stdDeviation="2"/>
<feComposite in2="hardAlpha" operator="arithmetic" k2="-1" k3="1"/>
<feColorMatrix type="matrix" values="0 0 0 0 0.423077 0 0 0 0 0.414941 0 0 0 0 0.414941 0 0 0 0.47 0"/>
<feBlend mode="normal" in2="shape" result="effect1_innerShadow_16_2902"/>
</filter>
<linearGradient id="paint0_linear_16_2902" x1="19.3344" y1="3.02508e-07" x2="24.9952" y2="24.9811" gradientUnits="userSpaceOnUse">
<stop stop-color="#EFE1E1"/>
<stop offset="1" stop-color="#A3A3A3"/>
</linearGradient>
</defs>
</svg>
