<svg width="39" height="42" viewBox="0 0 39 42" fill="none" xmlns="http://www.w3.org/2000/svg">
<path d="M31.8546 28.6806C30.2153 28.6806 28.7711 29.1734 27.7598 29.9208C26.7485 30.6683 26.2229 31.6202 26.2227 32.582C26.2227 33.5439 26.7484 34.4965 27.7598 35.2441C28.7711 35.9915 30.2154 36.4843 31.8546 36.4843C33.4938 36.4843 34.9381 35.9915 35.9493 35.2441C36.9608 34.4965 37.4864 33.5439 37.4864 32.582C37.4863 31.6202 36.9606 30.6683 35.9493 29.9208C34.9381 29.1734 33.4938 28.6806 31.8546 28.6806Z" fill="#DEC222" stroke="#A17619" stroke-width="2"/>
<path d="M31.4681 35.4871C30.9228 35.6247 30.5919 36.1785 30.7294 36.7238C30.7406 36.7679 30.8104 36.9244 31.0261 37.1656C31.2273 37.3907 31.5004 37.6267 31.8047 37.8335C32.1102 38.041 32.4176 38.1994 32.6801 38.2896C32.8872 38.3607 33.009 38.3681 33.0594 38.3682C33.0672 38.3337 33.0762 38.2791 33.079 38.1981C33.0919 37.8279 32.9826 37.3283 32.8405 36.7646C32.7628 36.4566 32.5175 36.0627 32.178 35.7785C31.8253 35.4832 31.5709 35.4612 31.4681 35.4871Z" fill="#DEC222" stroke="#A17619" stroke-width="2"/>
<path d="M29.5723 36.3411C29.0271 36.4786 28.6962 37.0324 28.8337 37.5777C28.8449 37.6218 28.9147 37.7783 29.1304 38.0195C29.3316 38.2446 29.6046 38.4806 29.909 38.6874C30.2144 38.8949 30.5218 39.0533 30.7844 39.1435C30.9915 39.2146 31.1133 39.222 31.1637 39.2221C31.1715 39.1876 31.1804 39.133 31.1833 39.052C31.1962 38.6818 31.0869 38.1823 30.9448 37.6186C30.867 37.3105 30.6218 36.9166 30.2823 36.6324C29.9296 36.3371 29.6752 36.3151 29.5723 36.3411Z" fill="#DEC222" stroke="#A17619" stroke-width="2"/>
<path d="M27.6766 37.195C27.1313 37.3326 26.8004 37.8863 26.9379 38.4317C26.9491 38.4758 27.0189 38.6323 27.2346 38.8735C27.4358 39.0985 27.7089 39.3346 28.0132 39.5413C28.3187 39.7488 28.626 39.9073 28.8886 39.9975C29.0957 40.0686 29.2175 40.076 29.2679 40.0761C29.2757 40.0415 29.2846 39.9869 29.2875 39.906C29.3004 39.5358 29.1911 39.0362 29.049 38.4725C28.9712 38.1645 28.726 37.7706 28.3865 37.4864C28.0338 37.1911 27.7794 37.1691 27.6766 37.195Z" fill="#DEC222" stroke="#A17619" stroke-width="2"/>
<path d="M7.05734 28.6806C5.4181 28.6806 3.97383 29.1734 2.96262 29.9208C1.95129 30.6683 1.42565 31.6202 1.42551 32.582C1.42551 33.5439 1.95114 34.4965 2.96262 35.2441C3.97383 35.9915 5.41814 36.4843 7.05734 36.4843C8.69654 36.4843 10.1409 35.9915 11.1521 35.2441C12.1635 34.4965 12.6892 33.5439 12.6892 32.582C12.689 31.6202 12.1634 30.6683 11.1521 29.9208C10.1408 29.1734 8.69658 28.6806 7.05734 28.6806Z" fill="#DEC222" stroke="#A17619" stroke-width="2"/>
<path d="M7.1195 35.4871C7.66477 35.6247 7.99566 36.1785 7.85819 36.7238C7.84699 36.7679 7.77719 36.9244 7.5615 37.1656C7.36025 37.3907 7.08721 37.6267 6.78284 37.8335C6.4774 38.041 6.17003 38.1994 5.90749 38.2896C5.70037 38.3607 5.57854 38.3681 5.52814 38.3682C5.52037 38.3337 5.51142 38.2791 5.50858 38.1981C5.49564 37.8279 5.60496 37.3283 5.74705 36.7646C5.82483 36.4566 6.07009 36.0627 6.40956 35.7785C6.76229 35.4832 7.01666 35.4612 7.1195 35.4871Z" fill="#DEC222" stroke="#A17619" stroke-width="2"/>
<path d="M9.01526 36.3411C9.56053 36.4786 9.89141 37.0324 9.75394 37.5777C9.74274 37.6218 9.67294 37.7783 9.45725 38.0195C9.256 38.2446 8.98296 38.4806 8.6786 38.6874C8.37315 38.8949 8.06578 39.0533 7.80325 39.1435C7.59612 39.2146 7.47429 39.222 7.42389 39.2221C7.41612 39.1876 7.40717 39.133 7.40433 39.052C7.39139 38.6818 7.50071 38.1823 7.6428 37.6186C7.72058 37.3105 7.96585 36.9166 8.30531 36.6324C8.65804 36.3371 8.91241 36.3151 9.01526 36.3411Z" fill="#DEC222" stroke="#A17619" stroke-width="2"/>
<path d="M10.9112 37.195C11.4564 37.3326 11.7873 37.8863 11.6498 38.4317C11.6386 38.4758 11.5688 38.6323 11.3532 38.8735C11.1519 39.0985 10.8789 39.3346 10.5745 39.5413C10.2691 39.7488 9.96169 39.9073 9.69915 39.9975C9.49202 40.0686 9.37019 40.076 9.3198 40.0761C9.31203 40.0415 9.30308 39.9869 9.30023 39.906C9.2873 39.5358 9.39661 39.0362 9.53871 38.4725C9.61649 38.1645 9.86175 37.7706 10.2012 37.4864C10.5539 37.1911 10.8083 37.1691 10.9112 37.195Z" fill="#DEC222" stroke="#A17619" stroke-width="2"/>
<g filter="url(#filter0_i_16_2560)">
<path d="M0.778969 26.4177C0.778969 32.1505 9.42915 38.5279 19.6209 38.5279C29.8126 38.5279 37.6864 32.1505 37.6864 26.4177C37.6864 20.6848 29.4244 16.0374 19.2327 16.0374C9.04098 16.0374 0.778969 20.6848 0.778969 26.4177Z" fill="#DEC222"/>
</g>
<path d="M19.2323 17.5374C14.3456 17.5375 9.99566 18.655 6.91982 20.3851C3.79702 22.1417 2.27935 24.3336 2.27919 26.4173C2.27919 28.5519 3.95299 31.1848 7.21474 33.3783C10.406 35.5243 14.8259 37.0277 19.621 37.0277C24.411 37.0276 28.6222 35.5269 31.6054 33.4007C34.6379 31.2392 36.1864 28.6087 36.1864 26.4173C36.1863 24.3336 34.6686 22.1417 31.5458 20.3851C28.4699 18.6549 24.1192 17.5374 19.2323 17.5374Z" stroke="#A17619" stroke-width="3"/>
<g filter="url(#filter1_i_16_2560)">
<path d="M1.00224 18.4538C1.00224 24.1866 9.65242 30.564 19.8441 30.564C30.0358 30.564 37.9097 24.1866 37.9097 18.4538C37.9097 12.7209 29.6477 8.07353 19.456 8.07353C9.26425 8.07353 1.00224 12.7209 1.00224 18.4538Z" fill="#DEC222"/>
</g>
<path d="M19.4556 9.57353C14.5689 9.57359 10.2189 10.6911 7.14308 12.4212C4.02029 14.1778 2.50262 16.3697 2.50246 18.4534C2.50246 20.588 4.17626 23.2209 7.438 25.4144C10.6292 27.5604 15.0492 29.0638 19.8443 29.0638C24.6343 29.0637 28.8455 27.563 31.8286 25.4368C34.8612 23.2753 36.4097 20.6448 36.4097 18.4534C36.4095 16.3697 34.8919 14.1778 31.7691 12.4212C28.6931 10.691 24.3425 9.57353 19.4556 9.57353Z" stroke="#A17619" stroke-width="3"/>
<mask id="path-13-inside-1_16_2560" fill="white">
<path d="M12.5356 0C8.07682 0.00011797 4.46236 3.74426 4.46236 8.3623C4.4626 12.9801 8.07697 16.7235 12.5356 16.7236C15.3249 16.7236 17.7845 15.2589 19.2348 13.0312C20.5883 15.2267 23.2779 16.7236 26.3764 16.7236C30.8351 16.7235 34.4496 13.6254 34.4497 9.80371C34.4497 5.9819 30.8352 2.88392 26.3764 2.88379C23.8445 2.88379 21.5852 3.88305 20.1049 5.44629C18.9624 2.26575 16.0044 0 12.5356 0Z"/>
</mask>
<g filter="url(#filter2_i_16_2560)">
<path d="M12.5356 0C8.07682 0.00011797 4.46236 3.74426 4.46236 8.3623C4.4626 12.9801 8.07697 16.7235 12.5356 16.7236C15.3249 16.7236 17.7845 15.2589 19.2348 13.0312C20.5883 15.2267 23.2779 16.7236 26.3764 16.7236C30.8351 16.7235 34.4496 13.6254 34.4497 9.80371C34.4497 5.9819 30.8352 2.88392 26.3764 2.88379C23.8445 2.88379 21.5852 3.88305 20.1049 5.44629C18.9624 2.26575 16.0044 0 12.5356 0Z" fill="#F3EDED"/>
</g>
<path d="M12.5356 0L12.5355 -2H12.5356V0ZM4.46236 8.3623L2.46236 8.36241V8.3623H4.46236ZM12.5356 16.7236V18.7236H12.5355L12.5356 16.7236ZM19.2348 13.0312L17.5588 11.94L19.2809 9.29494L20.9373 11.9817L19.2348 13.0312ZM26.3764 16.7236L26.3765 18.7236H26.3764V16.7236ZM34.4497 9.80371H36.4497V9.80377L34.4497 9.80371ZM26.3764 2.88379V0.883789H26.3765L26.3764 2.88379ZM20.1049 5.44629L21.5572 6.82142L19.3218 9.18213L18.2227 6.12244L20.1049 5.44629ZM12.5356 0L12.5357 2C9.24715 2.00009 6.46236 4.78192 6.46236 8.3623H4.46236H2.46236C2.46236 2.7066 6.9065 -1.99985 12.5355 -2L12.5356 0ZM4.46236 8.3623L6.46236 8.3622C6.46255 11.9423 9.2471 14.7235 12.5357 14.7236L12.5356 16.7236L12.5355 18.7236C6.90684 18.7235 2.46266 14.018 2.46236 8.36241L4.46236 8.3623ZM12.5356 16.7236V14.7236C14.6007 14.7236 16.4506 13.6421 17.5588 11.94L19.2348 13.0312L20.9109 14.1225C19.1183 16.8757 16.0491 18.7236 12.5356 18.7236V16.7236ZM19.2348 13.0312L20.9373 11.9817C21.8897 13.5266 23.8986 14.7236 26.3764 14.7236V16.7236V18.7236C22.6572 18.7236 19.2869 16.9267 17.5324 14.0808L19.2348 13.0312ZM26.3764 16.7236L26.3764 14.7236C30.0309 14.7235 32.4496 12.2427 32.4497 9.80365L34.4497 9.80371L36.4497 9.80377C36.4495 15.0082 31.6393 18.7235 26.3765 18.7236L26.3764 16.7236ZM34.4497 9.80371H32.4497C32.4497 7.36465 30.031 4.88389 26.3764 4.88379L26.3764 2.88379L26.3765 0.883789C31.6393 0.883939 36.4497 4.59915 36.4497 9.80371H34.4497ZM26.3764 2.88379V4.88379C24.362 4.88379 22.6384 5.67959 21.5572 6.82142L20.1049 5.44629L18.6527 4.07115C20.532 2.0865 23.3269 0.883789 26.3764 0.883789V2.88379ZM20.1049 5.44629L18.2227 6.12244C17.3439 3.67609 15.0985 2 12.5356 2V0V-2C16.9103 -2 20.5809 0.855416 21.9872 4.77014L20.1049 5.44629Z" fill="url(#paint0_linear_16_2560)" mask="url(#path-13-inside-1_16_2560)"/>
<path d="M10.9047 8.81468C10.5316 8.81468 10.2196 8.50591 10.3273 8.14866C10.4145 7.85951 10.5583 7.58817 10.7527 7.35132C11.0912 6.93878 11.5624 6.6564 12.0858 6.55229C12.6092 6.44817 13.1525 6.52877 13.6232 6.78034C14.0938 7.03191 14.4627 7.43889 14.6669 7.93194C14.8712 8.42499 14.8981 8.97359 14.7432 9.48428C14.5883 9.99498 14.2611 10.4362 13.8173 10.7326C13.3736 11.0291 12.8408 11.1626 12.3097 11.1103C12.0048 11.0803 11.7112 10.9901 11.4451 10.8473C11.1163 10.6708 11.1186 10.2319 11.3824 9.96804C11.8081 9.54242 11.5066 8.81468 10.9047 8.81468Z" fill="black"/>
<path d="M24.8603 9.50668C24.4872 9.50668 24.1752 9.19791 24.283 8.84067C24.3702 8.55151 24.5139 8.28017 24.7083 8.04332C25.0469 7.63078 25.518 7.3484 26.0414 7.24429C26.5648 7.14018 27.1082 7.22077 27.5788 7.47234C28.0495 7.72391 28.4183 8.13089 28.6226 8.62394C28.8268 9.11699 28.8537 9.66559 28.6988 10.1763C28.5439 10.687 28.2167 11.1282 27.773 11.4246C27.3293 11.7211 26.7964 11.8546 26.2653 11.8023C25.9604 11.7723 25.6669 11.6821 25.4008 11.5393C25.072 11.3628 25.0742 10.9239 25.3381 10.66C25.7637 10.2344 25.4623 9.50668 24.8603 9.50668Z" fill="black"/>
<ellipse cx="2.30672" cy="0.865018" rx="2.30672" ry="0.865018" transform="matrix(-0.920487 -0.390773 -0.390773 0.920487 19.4559 19.6799)" fill="#66701B"/>
<ellipse cx="22.1848" cy="19.5747" rx="2.30672" ry="0.865018" transform="rotate(-23.0026 22.1848 19.5747)" fill="#66701B"/>
<defs>
<filter id="filter0_i_16_2560" x="0.778961" y="16.0374" width="36.9075" height="26.4905" filterUnits="userSpaceOnUse" color-interpolation-filters="sRGB">
<feFlood flood-opacity="0" result="BackgroundImageFix"/>
<feBlend mode="normal" in="SourceGraphic" in2="BackgroundImageFix" result="shape"/>
<feColorMatrix in="SourceAlpha" type="matrix" values="0 0 0 0 0 0 0 0 0 0 0 0 0 0 0 0 0 0 127 0" result="hardAlpha"/>
<feOffset dy="10"/>
<feGaussianBlur stdDeviation="2"/>
<feComposite in2="hardAlpha" operator="arithmetic" k2="-1" k3="1"/>
<feColorMatrix type="matrix" values="0 0 0 0 0.278431 0 0 0 0 0.156863 0 0 0 0 0.0509804 0 0 0 0.18 0"/>
<feBlend mode="normal" in2="shape" result="effect1_innerShadow_16_2560"/>
</filter>
<filter id="filter1_i_16_2560" x="1.00223" y="4.07353" width="36.9075" height="26.4905" filterUnits="userSpaceOnUse" color-interpolation-filters="sRGB">
<feFlood flood-opacity="0" result="BackgroundImageFix"/>
<feBlend mode="normal" in="SourceGraphic" in2="BackgroundImageFix" result="shape"/>
<feColorMatrix in="SourceAlpha" type="matrix" values="0 0 0 0 0 0 0 0 0 0 0 0 0 0 0 0 0 0 127 0" result="hardAlpha"/>
<feOffset dy="-9"/>
<feGaussianBlur stdDeviation="2"/>
<feComposite in2="hardAlpha" operator="arithmetic" k2="-1" k3="1"/>
<feColorMatrix type="matrix" values="0 0 0 0 0.278846 0 0 0 0 0.157298 0 0 0 0 0.050943 0 0 0 0.25 0"/>
<feBlend mode="normal" in2="shape" result="effect1_innerShadow_16_2560"/>
</filter>
<filter id="filter2_i_16_2560" x="4.46234" y="-3" width="29.9873" height="19.7236" filterUnits="userSpaceOnUse" color-interpolation-filters="sRGB">
<feFlood flood-opacity="0" result="BackgroundImageFix"/>
<feBlend mode="normal" in="SourceGraphic" in2="BackgroundImageFix" result="shape"/>
<feColorMatrix in="SourceAlpha" type="matrix" values="0 0 0 0 0 0 0 0 0 0 0 0 0 0 0 0 0 0 127 0" result="hardAlpha"/>
<feOffset dy="-3"/>
<feGaussianBlur stdDeviation="2"/>
<feComposite in2="hardAlpha" operator="arithmetic" k2="-1" k3="1"/>
<feColorMatrix type="matrix" values="0 0 0 0 0.423077 0 0 0 0 0.414941 0 0 0 0 0.414941 0 0 0 0.47 0"/>
<feBlend mode="normal" in2="shape" result="effect1_innerShadow_16_2560"/>
</filter>
<linearGradient id="paint0_linear_16_2560" x1="19.456" y1="3.02508e-07" x2="25.1168" y2="24.9811" gradientUnits="userSpaceOnUse">
<stop stop-color="#EFE1E1"/>
<stop offset="1" stop-color="#A3A3A3"/>
</linearGradient>
</defs>
</svg>
